<svg width="85" height="99" viewBox="0 0 85 99" fill="none" xmlns="http://www.w3.org/2000/svg">
<path d="M80.0362 98.0038H4.90045C2.19823 98.0038 -3.05176e-05 95.8055 -3.05176e-05 93.1033V11.4341C-3.05176e-05 8.73258 2.19823 6.53357 4.90045 6.53357H80.0362C82.7377 6.53357 84.9367 8.73258 84.9367 11.4341V93.1033C84.9367 95.8055 82.7377 98.0038 80.0362 98.0038ZM4.90045 9.80031C4.00021 9.80031 3.26671 10.5338 3.26671 11.4341V93.1033C3.26671 94.0035 4.00021 94.737 4.90045 94.737H80.0362C80.9364 94.737 81.67 94.0035 81.67 93.1033V11.4341C81.67 10.5338 80.9364 9.80031 80.0362 9.80031H4.90045Z" fill="white"/>
<path d="M83.3029 29.4015H1.63371C0.731976 29.4015 -3.05176e-05 28.6695 -3.05176e-05 27.7678V11.4341C-3.05176e-05 8.73258 2.19823 6.53357 4.90045 6.53357H80.0362C82.7377 6.53357 84.9367 8.73258 84.9367 11.4341V27.7678C84.9367 28.6695 84.2047 29.4015 83.3029 29.4015ZM3.26671 26.1348H81.67V11.4341C81.67 10.5338 80.9364 9.80031 80.0362 9.80031H4.90045C4.00021 9.80031 3.26671 10.5338 3.26671 11.4341V26.1348Z" fill="white"/>
<path d="M75.1365 68.6024H9.80017C8.89843 68.6024 8.16718 67.8711 8.16718 66.9694V27.7678C8.16718 26.866 8.89843 26.1348 9.80017 26.1348H75.1365C76.0374 26.1348 76.7694 26.866 76.7694 27.7678V66.9694C76.7694 67.8711 76.0374 68.6024 75.1365 68.6024ZM11.4339 65.3356H73.5027V29.4015H11.4339V65.3356Z" fill="white"/>
<path d="M29.4015 98.0037H14.7008C13.799 98.0037 13.067 97.2717 13.067 96.37V93.1032C13.067 90.4018 15.266 88.2035 17.9675 88.2035H26.1347C28.8362 88.2035 31.0345 90.4018 31.0345 93.1032V96.37C31.0345 97.2717 30.3025 98.0037 29.4015 98.0037ZM16.3338 94.737H27.7677V93.1032C27.7677 92.2037 27.0342 91.4702 26.1347 91.4702H17.9675C17.0673 91.4702 16.3338 92.2037 16.3338 93.1032V94.737Z" fill="white"/>
<path d="M78.4031 9.80022H6.53333C5.63159 9.80022 4.90033 9.06896 4.90033 8.16722V4.90048C4.90033 2.19826 7.09859 0 9.80007 0H75.1364C77.8378 0 80.0361 2.19826 80.0361 4.90048V8.16722C80.0361 9.06896 79.3041 9.80022 78.4031 9.80022ZM8.16707 6.53348H76.7693V4.90048C76.7693 4.00024 76.0359 3.26674 75.1364 3.26674H9.80007C8.90057 3.26674 8.16707 4.00024 8.16707 4.90048V6.53348Z" fill="white"/>
<path d="M21.2341 22.8671H11.4339C10.5322 22.8671 9.80017 22.1359 9.80017 21.2341V14.7006C9.80017 13.7989 10.5322 13.0669 11.4339 13.0669H21.2341C22.1359 13.0669 22.8671 13.7989 22.8671 14.7006V21.2341C22.8671 22.1359 22.1359 22.8671 21.2341 22.8671ZM13.0669 19.6004H19.6004V16.3336H13.0669V19.6004Z" fill="white"/>
<path d="M16.3337 44.1013C15.9157 44.1013 15.4978 43.9413 15.1793 43.6228C14.5407 42.9842 14.5407 41.9524 15.1793 41.3131L23.3465 33.1466C23.985 32.5081 25.0169 32.5081 25.6554 33.1466C26.2947 33.7852 26.2947 34.8178 25.6554 35.4563L17.4889 43.6228C17.1704 43.9413 16.7524 44.1013 16.3337 44.1013Z" fill="white"/>
<path d="M27.7677 40.8346C27.3497 40.8346 26.9317 40.6746 26.6132 40.356C25.9739 39.7175 25.9739 38.6849 26.6132 38.0464L31.5129 33.1466C32.1515 32.5081 33.1841 32.5081 33.8226 33.1466C34.4611 33.7852 34.4611 34.8178 33.8226 35.4563L28.9229 40.356C28.6043 40.6746 28.1856 40.8346 27.7677 40.8346Z" fill="white"/>
<path d="M16.3337 52.2685C15.9157 52.2685 15.4978 52.1085 15.1793 51.7899C14.5407 51.1514 14.5407 50.1188 15.1793 49.4803L18.446 46.2135C19.0845 45.575 20.1171 45.575 20.7557 46.2135C21.3942 46.8521 21.3942 47.8847 20.7557 48.5232L17.4889 51.7899C17.1704 52.1085 16.7524 52.2685 16.3337 52.2685Z" fill="white"/>
<path d="M47.3681 22.8671H40.8346C39.9329 22.8671 39.2016 22.1359 39.2016 21.2341V14.7006C39.2016 13.7989 39.9329 13.0669 40.8346 13.0669H47.3681C48.2698 13.0669 49.0018 13.7989 49.0018 14.7006V21.2341C49.0018 22.1359 48.2698 22.8671 47.3681 22.8671ZM42.4684 19.6004H45.7351V16.3336H42.4684V19.6004Z" fill="white"/>
<path d="M60.4357 22.8671H53.9022C53.0005 22.8671 52.2685 22.1359 52.2685 21.2341V14.7006C52.2685 13.7989 53.0005 13.0669 53.9022 13.0669H60.4357C61.3375 13.0669 62.0687 13.7989 62.0687 14.7006V21.2341C62.0687 22.1359 61.3375 22.8671 60.4357 22.8671ZM55.5352 19.6004H58.802V16.3336H55.5352V19.6004Z" fill="white"/>
<path d="M73.5028 22.8671H66.9693C66.0675 22.8671 65.3355 22.1359 65.3355 21.2341V14.7006C65.3355 13.7989 66.0675 13.0669 66.9693 13.0669H73.5028C74.4045 13.0669 75.1365 13.7989 75.1365 14.7006V21.2341C75.1365 22.1359 74.4045 22.8671 73.5028 22.8671ZM68.6023 19.6004H71.869V16.3336H68.6023V19.6004Z" fill="white"/>
<path d="M50.6355 83.3029H34.3011C33.3993 83.3029 32.6681 82.5716 32.6681 81.6699C32.6681 80.7681 33.3993 80.0361 34.3011 80.0361H50.6355C51.5365 80.0361 52.2685 80.7681 52.2685 81.6699C52.2685 82.5716 51.5365 83.3029 50.6355 83.3029Z" fill="white"/>
<path d="M80.0362 98.0037H4.90045C2.19823 98.0037 -3.05176e-05 95.8055 -3.05176e-05 93.1032V75.1366C-3.05176e-05 74.2348 0.731976 73.5028 1.63371 73.5028H83.3029C84.2047 73.5028 84.9367 74.2348 84.9367 75.1366V93.1032C84.9367 95.8055 82.7377 98.0037 80.0362 98.0037ZM3.26671 76.7695V93.1032C3.26671 94.0035 4.00021 94.737 4.90045 94.737H80.0362C80.9364 94.737 81.67 94.0035 81.67 93.1032V76.7695H3.26671Z" fill="white"/>
<path d="M22.8671 45.735C22.4491 45.735 22.0311 45.575 21.7126 45.2564C21.0741 44.6179 21.0741 43.5853 21.7126 42.9468L23.3464 41.313C23.9849 40.6745 25.0167 40.6745 25.6553 41.313C26.2946 41.9523 26.2946 42.9841 25.6553 43.6227L24.0223 45.2564C23.7038 45.575 23.2858 45.735 22.8671 45.735Z" fill="white"/>
<path d="M34.3011 19.6002H27.7676C26.8658 19.6002 26.1346 18.869 26.1346 17.9672C26.1346 17.0655 26.8658 16.3335 27.7676 16.3335H34.3011C35.2028 16.3335 35.9348 17.0655 35.9348 17.9672C35.9348 18.869 35.2028 19.6002 34.3011 19.6002Z" fill="white"/>
</svg>
