<svg width="76" height="134" viewBox="0 0 76 134" fill="none" xmlns="http://www.w3.org/2000/svg">
<path d="M1.68908 124.991C1.2411 124.991 0.811482 124.814 0.494719 124.497C0.177956 124.18 0 123.75 0 123.302V73.7562C0 73.3082 0.177956 72.8786 0.494719 72.5619C0.811482 72.2451 1.2411 72.0671 1.68908 72.0671H73.7563C74.2043 72.0671 74.6339 72.2451 74.9507 72.5619C75.2674 72.8786 75.4454 73.3082 75.4454 73.7562V123.302C75.4454 123.75 75.2674 124.18 74.9507 124.497C74.6339 124.814 74.2043 124.991 73.7563 124.991H1.68908ZM72.0672 121.613V75.4453H3.37815V121.613H72.0672Z" fill="white"/>
<path d="M12.9497 64.7477C12.3906 64.708 11.8699 64.4491 11.5009 64.0273C11.1318 63.6055 10.9443 63.055 10.9791 62.4956V17.4536C10.9443 16.8943 11.1318 16.3438 11.5009 15.922C11.8699 15.5002 12.3906 15.2413 12.9497 15.2015C13.5062 15.2448 14.0234 15.5053 14.3894 15.9267C14.7555 16.348 14.9411 16.8965 14.9062 17.4536V62.4956C14.9411 63.0527 14.7555 63.6012 14.3894 64.0226C14.0234 64.444 13.5062 64.7045 12.9497 64.7477Z" fill="white"/>
<path d="M1.68908 134C1.2411 134 0.811482 133.822 0.494719 133.505C0.177956 133.189 0 132.759 0 132.311V123.303C0 122.855 0.177956 122.425 0.494719 122.108C0.811482 121.791 1.2411 121.614 1.68908 121.614H73.7563C74.2043 121.614 74.6339 121.791 74.9507 122.108C75.2674 122.425 75.4454 122.855 75.4454 123.303V132.311C75.4454 132.759 75.2674 133.189 74.9507 133.505C74.6339 133.822 74.2043 134 73.7563 134H1.68908ZM72.0672 130.622V124.992H3.37815V130.622H72.0672Z" fill="white"/>
<path d="M1.68908 75.4454C1.2411 75.4454 0.811482 75.2674 0.494719 74.9507C0.177956 74.6339 0 74.2043 0 73.7563V1.68908C0 1.2411 0.177956 0.811482 0.494719 0.494719C0.811482 0.177956 1.2411 0 1.68908 0H73.7563C74.2043 0 74.6339 0.177956 74.9507 0.494719C75.2674 0.811482 75.4454 1.2411 75.4454 1.68908V73.7563C75.4454 74.2043 75.2674 74.6339 74.9507 74.9507C74.6339 75.2674 74.2043 75.4454 73.7563 75.4454H1.68908ZM72.0672 72.0672V3.37815H3.37815V72.0672H72.0672Z" fill="white"/>
<path d="M12.9497 109.79C12.3906 109.75 11.8699 109.491 11.5009 109.069C11.1318 108.648 10.9443 108.097 10.9791 107.538V85.0167C10.9443 84.4574 11.1318 83.9069 11.5009 83.4851C11.8699 83.0633 12.3906 82.8044 12.9497 82.7646C13.5062 82.8079 14.0234 83.0684 14.3894 83.4898C14.7555 83.9112 14.9411 84.4596 14.9062 85.0167V107.538C14.9411 108.095 14.7555 108.643 14.3894 109.065C14.0234 109.486 13.5062 109.747 12.9497 109.79Z" fill="white"/>
<path d="M26.4623 28.0104C26.0517 28.0104 25.6579 27.8473 25.3675 27.5569C25.0771 27.2665 24.914 26.8727 24.914 26.4621V17.4537C24.914 17.043 25.0771 16.6492 25.3675 16.3589C25.6579 16.0685 26.0517 15.9054 26.4623 15.9054H48.9833C49.1902 15.8997 49.3961 15.9356 49.5888 16.0109C49.7816 16.0862 49.9573 16.1993 50.1056 16.3436C50.2538 16.488 50.3717 16.6606 50.4521 16.8512C50.5325 17.0419 50.5739 17.2467 50.5739 17.4537V26.4621C50.5739 26.8727 50.4107 27.2665 50.1204 27.5569C49.83 27.8473 49.4362 28.0104 49.0256 28.0104H26.4623ZM28.0529 24.9138H47.4772V19.002H28.0529V24.9138Z" fill="white"/>
<path d="M73.0948 113.999H55.6692C55.3926 114.032 55.112 114.006 54.8461 113.923C54.5802 113.84 54.3349 113.701 54.1264 113.516C53.918 113.331 53.7511 113.104 53.6369 112.85C53.5226 112.596 53.4635 112.321 53.4635 112.042C53.4635 111.763 53.5226 111.488 53.6369 111.234C53.7511 110.98 53.918 110.753 54.1264 110.568C54.3349 110.383 54.5802 110.244 54.8461 110.161C55.112 110.078 55.3926 110.052 55.6692 110.085H73.0948C73.3715 110.052 73.652 110.078 73.9179 110.161C74.1839 110.244 74.4291 110.383 74.6376 110.568C74.846 110.753 75.0129 110.98 75.1272 111.234C75.2414 111.488 75.3005 111.763 75.3005 112.042C75.3005 112.321 75.2414 112.596 75.1272 112.85C75.0129 113.104 74.846 113.331 74.6376 113.516C74.4291 113.701 74.1839 113.84 73.9179 113.923C73.652 114.006 73.3715 114.032 73.0948 113.999Z" fill="white"/>
<path d="M73.0948 105.004H66.5778C66.3012 105.037 66.0207 105.012 65.7547 104.928C65.4888 104.845 65.2435 104.707 65.0351 104.522C64.8266 104.337 64.6598 104.11 64.5455 103.856C64.4312 103.602 64.3721 103.326 64.3721 103.048C64.3721 102.769 64.4312 102.494 64.5455 102.239C64.6598 101.985 64.8266 101.758 65.0351 101.573C65.2435 101.389 65.4888 101.25 65.7547 101.167C66.0207 101.084 66.3012 101.058 66.5778 101.091H73.0948C73.3715 101.058 73.652 101.084 73.918 101.167C74.1839 101.25 74.4292 101.389 74.6376 101.573C74.846 101.758 75.0129 101.985 75.1272 102.239C75.2415 102.494 75.3005 102.769 75.3005 103.048C75.3005 103.326 75.2415 103.602 75.1272 103.856C75.0129 104.11 74.846 104.337 74.6376 104.522C74.4292 104.707 74.1839 104.845 73.918 104.928C73.652 105.012 73.3715 105.037 73.0948 105.004Z" fill="white"/>
</svg>
