<svg width="85" height="105" viewBox="0 0 85 105" fill="none" xmlns="http://www.w3.org/2000/svg">
<path d="M79.4165 105H5.91705C3.02193 105 0.666748 102.644 0.666748 99.7493V5.2503C0.666748 2.35519 3.02193 0 5.91705 0H79.4165C82.3108 0 84.6668 2.35519 84.6668 5.2503V99.7493C84.6668 102.644 82.3108 105 79.4165 105ZM5.91705 3.49993C4.95094 3.49993 4.16668 4.2858 4.16668 5.2503V99.7493C4.16668 100.714 4.95094 101.5 5.91705 101.5H79.4165C80.3826 101.5 81.1668 100.714 81.1668 99.7493V5.2503C81.1668 4.2858 80.3826 3.49993 79.4165 3.49993H5.91705Z" fill="white"/>
<path d="M42.6666 85.7496C27.2266 85.7496 14.6664 73.1886 14.6664 57.7501C14.6664 42.3117 27.2266 29.7499 42.6666 29.7499C58.1067 29.7499 70.6661 42.3117 70.6661 57.7501C70.6661 73.1886 58.1067 85.7496 42.6666 85.7496ZM42.6666 33.2498C29.1564 33.2498 18.1663 44.2399 18.1663 57.7501C18.1663 71.2596 29.1564 82.2497 42.6666 82.2497C56.1761 82.2497 67.1662 71.2596 67.1662 57.7501C67.1662 44.2399 56.1761 33.2498 42.6666 33.2498ZM42.6666 78.7497C31.087 78.7497 21.6662 69.3298 21.6662 57.7501C21.6662 46.1705 31.087 36.7497 42.6666 36.7497C54.2463 36.7497 63.6662 46.1705 63.6662 57.7501C63.6662 69.3298 54.2463 78.7497 42.6666 78.7497ZM42.6666 40.2497C33.0168 40.2497 25.1662 48.1003 25.1662 57.7501C25.1662 67.3992 33.0168 75.2498 42.6666 75.2498C52.3157 75.2498 60.1663 67.3992 60.1663 57.7501C60.1663 48.1003 52.3157 40.2497 42.6666 40.2497Z" fill="white"/>
<path d="M30.4167 59.4997C29.4506 59.4997 28.6671 58.7155 28.6671 57.7502C28.6671 50.0309 34.9476 43.7496 42.6668 43.7496C43.633 43.7496 44.4164 44.5339 44.4164 45.5C44.4164 46.4661 43.633 47.2496 42.6668 47.2496C36.8774 47.2496 32.167 51.9591 32.167 57.7502C32.167 58.7155 31.3828 59.4997 30.4167 59.4997Z" fill="white"/>
<path d="M42.6668 85.7498C28.7087 85.7498 16.791 75.3165 14.9413 61.481C14.8748 60.9803 15.027 60.4764 15.3595 60.0967C15.6919 59.717 16.1718 59.4999 16.6773 59.4999H23.7508C24.5944 59.4999 25.3194 60.1023 25.4716 60.9314C27.004 69.2282 34.2354 75.25 42.6668 75.25C51.0982 75.25 58.3288 69.2282 59.8605 60.9314C60.0143 60.1023 60.7385 59.4999 61.582 59.4999H68.6556C69.1595 59.4999 69.6393 59.7186 69.9717 60.0967C70.3042 60.4748 70.4564 60.9803 70.3899 61.481C68.5418 75.3165 56.6249 85.7498 42.6668 85.7498ZM18.7601 62.9998C21.189 74.1052 31.1328 82.2498 42.6668 82.2498C54.2008 82.2498 64.1447 74.1052 66.5735 62.9998H62.9855C60.6167 72.2083 52.2918 78.7499 42.6652 78.7499C33.0378 78.7499 24.7153 72.2083 22.3441 62.9998H18.7601Z" fill="white"/>
<path d="M22.2038 17.4998H14.1297C10.5665 17.4998 7.66656 14.6007 7.66656 11.0375V10.7122C7.66656 8.66625 9.33122 7 11.3788 7H24.9547C27.0023 7 28.667 8.66625 28.667 10.7122V11.0375C28.667 14.6007 25.767 17.4998 22.2038 17.4998ZM11.3788 10.4999C11.261 10.4999 11.1665 10.5945 11.1665 10.7122V11.0375C11.1665 12.6717 12.4963 13.9999 14.1297 13.9999H22.2038C23.8364 13.9999 25.1662 12.6717 25.1662 11.0375V10.7122C25.1662 10.5945 25.0725 10.4999 24.9547 10.4999H11.3788Z" fill="white"/>
<path d="M33.9165 24.4995H2.41712C1.45101 24.4995 0.666748 23.7161 0.666748 22.75V5.2503C0.666748 2.35519 3.02193 0 5.91705 0H33.9165C34.8826 0 35.6669 0.784261 35.6669 1.75037V22.75C35.6669 23.7161 34.8826 24.4995 33.9165 24.4995ZM4.16668 20.9996H32.167V3.49993H5.91705C4.95094 3.49993 4.16668 4.2858 4.16668 5.2503V20.9996Z" fill="white"/>
<path d="M82.9164 24.4995H33.9165C32.9504 24.4995 32.1669 23.7161 32.1669 22.75V1.75037C32.1669 0.784261 32.9504 0 33.9165 0H79.4164C82.3107 0 84.6667 2.35519 84.6667 5.2503V22.75C84.6667 23.7161 83.8825 24.4995 82.9164 24.4995ZM35.6669 20.9996H81.1668V5.2503C81.1668 4.2858 80.3825 3.49993 79.4164 3.49993H35.6669V20.9996Z" fill="white"/>
<path d="M70.6661 19.2501C66.8057 19.2501 63.6663 16.1107 63.6663 12.2502C63.6663 8.38981 66.8057 5.25037 70.6661 5.25037C74.5265 5.25037 77.666 8.38981 77.666 12.2502C77.666 16.1107 74.5265 19.2501 70.6661 19.2501ZM70.6661 8.7503C68.7363 8.7503 67.1662 10.3196 67.1662 12.2502C67.1662 14.18 68.7363 15.7502 70.6661 15.7502C72.5967 15.7502 74.1661 14.18 74.1661 12.2502C74.1661 10.3196 72.5967 8.7503 70.6661 8.7503Z" fill="white"/>
<path d="M44.4163 10.4999H42.6667C41.7006 10.4999 40.9164 9.71647 40.9164 8.75037C40.9164 7.78426 41.7006 7 42.6667 7H44.4163C45.3824 7 46.1667 7.78426 46.1667 8.75037C46.1667 9.71647 45.3824 10.4999 44.4163 10.4999Z" fill="white"/>
<path d="M44.4163 17.4996H42.6667C41.7006 17.4996 40.9164 16.7161 40.9164 15.75C40.9164 14.7839 41.7006 13.9996 42.6667 13.9996H44.4163C45.3824 13.9996 46.1667 14.7839 46.1667 15.75C46.1667 16.7161 45.3824 17.4996 44.4163 17.4996Z" fill="white"/>
<path d="M51.4162 10.4999H49.6666C48.7005 10.4999 47.9163 9.71647 47.9163 8.75037C47.9163 7.78426 48.7005 7 49.6666 7H51.4162C52.3823 7 53.1666 7.78426 53.1666 8.75037C53.1666 9.71647 52.3823 10.4999 51.4162 10.4999Z" fill="white"/>
<path d="M51.4162 17.4996H49.6666C48.7005 17.4996 47.9163 16.7161 47.9163 15.75C47.9163 14.7839 48.7005 13.9996 49.6666 13.9996H51.4162C52.3823 13.9996 53.1666 14.7839 53.1666 15.75C53.1666 16.7161 52.3823 17.4996 51.4162 17.4996Z" fill="white"/>
<path d="M58.4169 10.4999H56.6665C55.7004 10.4999 54.9169 9.71647 54.9169 8.75037C54.9169 7.78426 55.7004 7 56.6665 7H58.4169C59.3822 7 60.1664 7.78426 60.1664 8.75037C60.1664 9.71647 59.3822 10.4999 58.4169 10.4999Z" fill="white"/>
<path d="M58.4169 17.4996H56.6665C55.7004 17.4996 54.9169 16.7161 54.9169 15.75C54.9169 14.7839 55.7004 13.9996 56.6665 13.9996H58.4169C59.3822 13.9996 60.1664 14.7839 60.1664 15.75C60.1664 16.7161 59.3822 17.4996 58.4169 17.4996Z" fill="white"/>
</svg>
