<svg width="101" height="70" viewBox="0 0 101 70" fill="none" xmlns="http://www.w3.org/2000/svg">
<path d="M20.0001 70.0007H8.3338C7.41368 70.0007 6.66675 69.2561 6.66675 68.3344V61.6678C6.66675 60.7461 7.41368 60.0007 8.3338 60.0007H20.0001C20.9202 60.0007 21.6671 60.7461 21.6671 61.6678V68.3344C21.6671 69.2561 20.9202 70.0007 20.0001 70.0007ZM10.0001 66.6674H18.3338V63.3341H10.0001V66.6674Z" fill="#CF0F1D"/>
<path d="M91.6678 70.0007H80.0015C79.0814 70.0007 78.3345 69.2561 78.3345 68.3344V61.6678C78.3345 60.7461 79.0814 60.0007 80.0015 60.0007H91.6678C92.5879 60.0007 93.3349 60.7461 93.3349 61.6678V68.3344C93.3349 69.2561 92.5879 70.0007 91.6678 70.0007ZM81.6678 66.6674H90.0015V63.3341H81.6678V66.6674Z" fill="#CF0F1D"/>
<path d="M86.6683 20C82.9916 20 80.0016 17.01 80.0016 13.3333C80.0016 9.65663 82.9916 6.66663 86.6683 6.66663C90.3449 6.66663 93.3349 9.65663 93.3349 13.3333C93.3349 17.01 90.3449 20 86.6683 20ZM86.6683 9.99996C84.8295 9.99996 83.3349 11.4953 83.3349 13.3333C83.3349 15.172 84.8295 16.6666 86.6683 16.6666C88.5062 16.6666 90.0016 15.172 90.0016 13.3333C90.0016 11.4953 88.5062 9.99996 86.6683 9.99996Z" fill="#CF0F1D"/>
<path d="M86.6683 56.6673C82.9916 56.6673 80.0016 53.6773 80.0016 50.0007C80.0016 46.324 82.9916 43.334 86.6683 43.334C90.3449 43.334 93.3349 46.324 93.3349 50.0007C93.3349 53.6773 90.3449 56.6673 86.6683 56.6673ZM86.6683 46.6673C84.8295 46.6673 83.3349 48.1619 83.3349 50.0007C83.3349 51.8394 84.8295 53.334 86.6683 53.334C88.5062 53.334 90.0016 51.8394 90.0016 50.0007C90.0016 48.1619 88.5062 46.6673 86.6683 46.6673Z" fill="#CF0F1D"/>
<path d="M95.0012 63.3341H5.00038C2.24308 63.3341 0 61.091 0 58.3345V5.00038C0 2.24308 2.24308 0 5.00038 0H95.0012C97.7585 0 100.002 2.24308 100.002 5.00038V58.3345C100.002 61.091 97.7585 63.3341 95.0012 63.3341ZM5.00038 3.33333C4.08179 3.33333 3.33333 4.08026 3.33333 5.00038V58.3345C3.33333 59.2546 4.08179 60.0008 5.00038 60.0008H95.0012C95.9198 60.0008 96.6682 59.2546 96.6682 58.3345V5.00038C96.6682 4.08026 95.9198 3.33333 95.0012 3.33333H5.00038Z" fill="#CF0F1D"/>
<path d="M68.3346 56.6674H15.0005C10.4052 56.6674 6.66675 52.9289 6.66675 48.3337V15.0003C6.66675 10.4051 10.4052 6.66663 15.0005 6.66663H68.3346C72.9298 6.66663 76.6683 10.4051 76.6683 15.0003V48.3337C76.6683 52.9289 72.9298 56.6674 68.3346 56.6674ZM15.0005 9.99996C12.2439 9.99996 10.0001 12.2438 10.0001 15.0003V48.3337C10.0001 51.091 12.2439 53.3341 15.0005 53.3341H68.3346C71.0911 53.3341 73.3342 51.091 73.3342 48.3337V15.0003C73.3342 12.2438 71.0911 9.99996 68.3346 9.99996H15.0005Z" fill="#CF0F1D"/>
<path d="M98.3345 70.0008H1.66705C0.746929 70.0008 0 69.2562 0 68.3345C0 67.4129 0.746929 66.6675 1.66705 66.6675H98.3345C99.2546 66.6675 100.002 67.4129 100.002 68.3345C100.002 69.2562 99.2546 70.0008 98.3345 70.0008Z" fill="#CF0F1D"/>
<path d="M83.3349 26.6673C82.4148 26.6673 81.6678 25.9218 81.6678 25.0002V23.3332C81.6678 22.4115 82.4148 21.6669 83.3349 21.6669C84.255 21.6669 85.0012 22.4115 85.0012 23.3332V25.0002C85.0012 25.9218 84.255 26.6673 83.3349 26.6673Z" fill="#CF0F1D"/>
<path d="M90.0016 26.6673C89.0815 26.6673 88.3346 25.9218 88.3346 25.0002V23.3332C88.3346 22.4115 89.0815 21.6669 90.0016 21.6669C90.9218 21.6669 91.6679 22.4115 91.6679 23.3332V25.0002C91.6679 25.9218 90.9218 26.6673 90.0016 26.6673Z" fill="#CF0F1D"/>
<path d="M83.3349 33.3342C82.4148 33.3342 81.6678 32.5888 81.6678 31.6672V30.0009C81.6678 29.0793 82.4148 28.3339 83.3349 28.3339C84.255 28.3339 85.0012 29.0793 85.0012 30.0009V31.6672C85.0012 32.5888 84.255 33.3342 83.3349 33.3342Z" fill="#CF0F1D"/>
<path d="M90.0016 33.3342C89.0815 33.3342 88.3346 32.5888 88.3346 31.6672V30.0009C88.3346 29.0793 89.0815 28.3339 90.0016 28.3339C90.9218 28.3339 91.6679 29.0793 91.6679 30.0009V31.6672C91.6679 32.5888 90.9218 33.3342 90.0016 33.3342Z" fill="#CF0F1D"/>
<path d="M83.3349 40.0007C82.4148 40.0007 81.6678 39.2553 81.6678 38.3337V36.6674C81.6678 35.7458 82.4148 35.0004 83.3349 35.0004C84.255 35.0004 85.0012 35.7458 85.0012 36.6674V38.3337C85.0012 39.2553 84.255 40.0007 83.3349 40.0007Z" fill="#CF0F1D"/>
<path d="M90.0016 40.0007C89.0815 40.0007 88.3346 39.2553 88.3346 38.3337V36.6674C88.3346 35.7458 89.0815 35.0004 90.0016 35.0004C90.9218 35.0004 91.6679 35.7458 91.6679 36.6674V38.3337C91.6679 39.2553 90.9218 40.0007 90.0016 40.0007Z" fill="#CF0F1D"/>
<path d="M15.0003 25.0004C14.5738 25.0004 14.1466 24.8372 13.8216 24.5122C13.17 23.8606 13.17 22.807 13.8216 22.1554L22.1553 13.8217C22.8068 13.1701 23.8605 13.1701 24.512 13.8217C25.1636 14.4732 25.1636 15.5269 24.512 16.1784L16.1783 24.5122C15.8533 24.8372 15.4268 25.0004 15.0003 25.0004Z" fill="#CF0F1D"/>
<path d="M26.6674 21.6671C26.2402 21.6671 25.8137 21.5038 25.4887 21.1788C24.8371 20.5273 24.8371 19.4736 25.4887 18.8221L30.4891 13.8217C31.1406 13.1701 32.1935 13.1701 32.8458 13.8217C33.4974 14.4732 33.4974 15.5269 32.8458 16.1784L27.8454 21.1788C27.5204 21.5038 27.0939 21.6671 26.6674 21.6671Z" fill="#CF0F1D"/>
<path d="M15.0003 33.334C14.5738 33.334 14.1466 33.1707 13.8216 32.8457C13.17 32.1934 13.17 31.1405 13.8216 30.489L17.1549 27.1556C17.8072 26.5033 18.8601 26.5033 19.5116 27.1556C20.1632 27.8072 20.1632 28.8601 19.5116 29.5124L16.1783 32.8457C15.8533 33.1707 15.4268 33.334 15.0003 33.334Z" fill="#CF0F1D"/>
<path d="M21.6671 26.6674C21.2406 26.6674 20.8133 26.5034 20.4883 26.1783C19.8367 25.5268 19.8367 24.4739 20.4883 23.8223L22.1554 22.1553C22.8069 21.5037 23.8605 21.5037 24.5121 22.1553C25.1637 22.8069 25.1637 23.8605 24.5121 24.5121L22.8451 26.1783C22.52 26.5034 22.0936 26.6674 21.6671 26.6674Z" fill="#CF0F1D"/>
</svg>
