<svg width="83" height="120" viewBox="0 0 83 120" fill="none" xmlns="http://www.w3.org/2000/svg">
<path d="M78.6609 0H4.01728C1.80207 0 0 1.80207 0 4.01728V115.983C0 118.198 1.80207 120 4.01728 120H78.6609C80.8761 120 82.6782 118.198 82.6782 115.983V4.01728C82.6782 1.80207 80.8761 0 78.6609 0ZM3.88769 20.4752H78.7905V103.672H3.88769V20.4752ZM4.01728 3.88769H78.6609C78.7322 3.88769 78.7905 3.94575 78.7905 4.01728V16.5875H3.88769V4.01728C3.88769 3.94575 3.946 3.88769 4.01728 3.88769ZM78.6609 116.112H4.01728C3.946 116.112 3.88769 116.054 3.88769 115.983V107.559H78.7905V115.983C78.7905 116.054 78.7322 116.112 78.6609 116.112Z" fill="white"/>
<path d="M68.2938 24.8812H14.3845C13.3107 24.8812 12.4407 25.7515 12.4407 26.8251C12.4407 27.8986 13.3107 28.7689 14.3845 28.7689H68.2938C69.3676 28.7689 70.2376 27.8986 70.2376 26.8251C70.2376 25.7515 69.3676 24.8812 68.2938 24.8812Z" fill="white"/>
<path d="M28.8987 12.1815H53.7799C54.8537 12.1815 55.7237 11.3112 55.7237 10.2377C55.7237 9.16415 54.8537 8.29382 53.7799 8.29382H28.8987C27.8249 8.29382 26.9548 9.16415 26.9548 10.2377C26.9548 11.3112 27.8249 12.1815 28.8987 12.1815Z" fill="white"/>
<path d="M62.0737 12.1815H64.1472C65.2209 12.1815 66.091 11.3112 66.091 10.2377C66.091 9.16415 65.2209 8.29382 64.1472 8.29382H62.0737C60.9999 8.29382 60.1299 9.16415 60.1299 10.2377C60.1299 11.3112 60.9999 12.1815 62.0737 12.1815Z" fill="white"/>
<path d="M18.5312 12.1815H20.6047C21.6785 12.1815 22.5485 11.3112 22.5485 10.2377C22.5485 9.16415 21.6785 8.29382 20.6047 8.29382H18.5312C17.4575 8.29382 16.5874 9.16415 16.5874 10.2377C16.5874 11.3112 17.4575 12.1815 18.5312 12.1815Z" fill="white"/>
</svg>
