<svg width="99" height="79" viewBox="0 0 99 79" fill="none" xmlns="http://www.w3.org/2000/svg">
<path d="M98.6455 58.6938C98.6357 58.5468 98.6079 58.4064 98.5606 58.2692C98.541 58.2104 98.523 58.1548 98.4969 58.1009C98.4299 57.9621 98.3433 57.8347 98.2372 57.7155C98.2143 57.6893 98.1996 57.6583 98.1735 57.6338C98.1686 57.6289 98.1653 57.6207 98.1588 57.6158L64.3667 25.4326V0H34.9667V25.4326L1.17471 57.6158C1.16981 57.6207 1.16655 57.6289 1.16001 57.6338C1.13551 57.6583 1.11918 57.6893 1.09631 57.7155C0.990148 57.8331 0.903581 57.9605 0.836615 58.0993C0.810481 58.1532 0.792515 58.2104 0.772915 58.2675C0.725548 58.4064 0.696148 58.5468 0.687981 58.6922C0.686348 58.7314 0.666748 58.7624 0.666748 58.8V76.7667C0.666748 77.6699 1.39685 78.4 2.30008 78.4H97.0334C97.9366 78.4 98.6667 77.6699 98.6667 76.7667V58.8C98.6667 58.7624 98.6488 58.7314 98.6455 58.6938ZM38.2334 3.26667H61.1001V24.5H38.2334V3.26667ZM37.2534 27.7667H62.0801L92.9501 57.1667H78.219L65.6424 41.4458C65.0772 40.7419 64.0515 40.6259 63.3459 41.191C62.6419 41.7562 62.5276 42.7835 63.0911 43.4875L74.0344 57.1667H25.299L36.2424 43.4875C36.8059 42.7819 36.6899 41.7545 35.9876 41.191C35.2803 40.6259 34.2562 40.7468 33.6911 41.4458L21.1144 57.1667H6.38341L37.2534 27.7667ZM95.4001 75.1333H67.6334V71.8667C67.6334 70.9634 66.9033 70.2333 66.0001 70.2333C65.0968 70.2333 64.3667 70.9634 64.3667 71.8667V75.1333H61.1001V71.8667C61.1001 70.9634 60.37 70.2333 59.4667 70.2333C58.5635 70.2333 57.8334 70.9634 57.8334 71.8667V75.1333H54.5667V71.8667C54.5667 70.9634 53.8366 70.2333 52.9334 70.2333C52.0302 70.2333 51.3001 70.9634 51.3001 71.8667V75.1333H48.0334V71.8667C48.0334 70.9634 47.3033 70.2333 46.4001 70.2333C45.4968 70.2333 44.7667 70.9634 44.7667 71.8667V75.1333H41.5001V71.8667C41.5001 70.9634 40.77 70.2333 39.8667 70.2333C38.9635 70.2333 38.2334 70.9634 38.2334 71.8667V75.1333H34.9667V71.8667C34.9667 70.9634 34.2366 70.2333 33.3334 70.2333C32.4302 70.2333 31.7001 70.9634 31.7001 71.8667V75.1333H3.93341V60.4333H95.4001V75.1333Z" fill="white"/>
<path d="M74.1667 65.3333V70.2333C74.1667 71.1365 74.8968 71.8666 75.8001 71.8666H80.7001C81.6033 71.8666 82.3334 71.1365 82.3334 70.2333V65.3333C82.3334 64.4301 81.6033 63.7 80.7001 63.7H75.8001C74.8968 63.7 74.1667 64.4301 74.1667 65.3333ZM77.4334 66.9666H79.0667V68.6H77.4334V66.9666Z" fill="white"/>
<path d="M85.6001 71.8666H90.5001C91.4034 71.8666 92.1335 71.1365 92.1335 70.2333V65.3333C92.1335 64.4301 91.4034 63.7 90.5001 63.7H85.6001C84.6969 63.7 83.9668 64.4301 83.9668 65.3333V70.2333C83.9668 71.1365 84.6969 71.8666 85.6001 71.8666ZM87.2335 66.9666H88.8668V68.6H87.2335V66.9666Z" fill="white"/>
<path d="M17.0002 68.6H8.83353C7.9303 68.6 7.2002 69.3301 7.2002 70.2333C7.2002 71.1365 7.9303 71.8666 8.83353 71.8666H17.0002C17.9034 71.8666 18.6335 71.1365 18.6335 70.2333C18.6335 69.3301 17.9034 68.6 17.0002 68.6Z" fill="white"/>
</svg>
