<svg width="32" height="23" viewBox="0 0 32 23" fill="none" xmlns="http://www.w3.org/2000/svg">
<path d="M10.4386 0.338342C10.8897 -0.112781 11.5999 -0.112781 12.051 0.338342C12.4869 0.774224 12.4869 1.49968 12.051 1.93454L3.87493 10.1106H30.8549C31.4839 10.1106 32 10.6105 32 11.2395C32 11.8684 31.4839 12.3845 30.8549 12.3845H3.87493L12.051 20.5454C12.4869 20.9965 12.4869 21.723 12.051 22.1579C11.5999 22.609 10.8897 22.609 10.4386 22.1579L0.326912 12.0462C-0.108971 11.6103 -0.108971 10.8849 0.326912 10.45L10.4386 0.338342Z" fill="url(#paint0_linear)"/>
<defs>
<linearGradient id="paint0_linear" x1="0.233334" y1="11.2481" x2="-14.7193" y2="22.3325" gradientUnits="userSpaceOnUse">
<stop stop-color="#BDBBBE"/>
<stop offset="1" stop-color="#9D9EA3"/>
</linearGradient>
</defs>
</svg>
