<svg width="12" height="12" viewBox="0 0 12 12" fill="none" xmlns="http://www.w3.org/2000/svg">
<path fill-rule="evenodd" clip-rule="evenodd" d="M11.6768 10.1355L9.04168 7.50039L9.04083 7.49954L7.54126 5.99996L9.04081 4.50042L11.6767 1.8645C12.1054 1.43585 12.1078 0.743342 11.6822 0.317742C11.2566 -0.107858 10.5641 -0.105381 10.1355 0.323275L6.00003 4.45873L4.50032 2.95903L1.86441 0.323118C1.43575 -0.105537 0.743245 -0.108012 0.317645 0.317586C-0.107954 0.743185 -0.105477 1.4357 0.323178 1.86435L4.4588 5.99997L4.37018 6.08858L4.22946 6.22927C4.21949 6.23925 4.20963 6.24931 4.19991 6.25944L0.323159 10.1357C-0.105529 10.5643 -0.10803 11.2569 0.317576 11.6825C0.743161 12.108 1.43565 12.1056 1.86429 11.6769L4.49944 9.04178L4.50029 9.04093L6.00003 7.5412L6.08848 7.62965L6.22918 7.77037C6.23916 7.78035 6.24921 7.7902 6.25934 7.79992L10.1356 11.6767C10.5642 12.1054 11.2568 12.1079 11.6824 11.6823C12.108 11.2567 12.1055 10.5642 11.6768 10.1355Z" fill="#BDBBBE"/>
</svg>
