<svg width="200" height="176" viewBox="0 0 200 176" fill="none" xmlns="http://www.w3.org/2000/svg">
<g opacity="0.5">
<path fill-rule="evenodd" clip-rule="evenodd" d="M100.016 151.083C60.2655 151.083 28.0544 159.207 28.0544 163.822C28.0544 168.042 60.2655 175.281 100.016 175.281C139.766 175.281 171.977 168.042 171.977 163.822C171.977 159.222 139.75 151.083 100.016 151.083ZM163.948 144.95C165.355 144.95 166.509 146.104 166.509 147.511C166.509 148.917 165.355 150.055 163.948 150.055C162.541 150.055 161.404 148.933 161.404 147.511C161.404 146.088 162.541 144.95 163.948 144.95ZM36.0835 144.95C37.4901 144.95 38.6281 146.104 38.6281 147.511C38.6281 148.917 37.4901 150.055 36.0835 150.055C34.6768 150.055 33.523 148.933 33.523 147.511C33.523 146.088 34.6768 144.95 36.0835 144.95ZM119.646 137.506C121.053 137.506 122.191 138.628 122.191 140.051C122.191 141.457 121.053 142.611 119.646 142.611C118.239 142.611 117.086 141.457 117.086 140.051C117.086 138.628 118.239 137.506 119.646 137.506ZM80.3857 137.506C81.7923 137.506 82.9461 138.628 82.9461 140.051C82.9461 141.457 81.7923 142.611 80.3857 142.611C78.979 142.611 77.841 141.457 77.841 140.051C77.841 138.628 78.979 137.506 80.3857 137.506ZM165.813 134.645C167.22 134.645 168.374 135.799 168.374 137.206C168.374 138.612 167.22 139.734 165.813 139.734C164.407 139.734 163.253 138.612 163.253 137.206C163.253 135.799 164.407 134.645 165.813 134.645ZM34.2184 134.645C35.6251 134.645 36.7789 135.799 36.7789 137.206C36.7789 138.612 35.6251 139.734 34.2184 139.734C32.8118 139.734 31.658 138.612 31.658 137.206C31.658 135.799 32.8118 134.645 34.2184 134.645ZM140.382 127.438C141.125 127.422 141.884 127.454 142.658 127.549C148.87 128.339 153.438 132.575 152.869 137.032C152.3 141.489 146.831 144.476 140.62 143.686C134.408 142.896 129.84 138.644 130.409 134.171C130.915 130.299 135.167 127.549 140.382 127.438ZM59.6333 127.438C64.8491 127.533 69.1007 130.299 69.6064 134.187C70.1754 138.644 65.6077 142.911 59.3962 143.702C53.2006 144.492 47.7161 141.505 47.1471 137.048C46.5782 132.59 51.1459 128.355 57.3574 127.564C58.1318 127.47 58.8905 127.422 59.6333 127.438ZM121.005 126.916C122.412 126.916 123.55 128.039 123.55 129.461C123.55 130.868 122.428 132.021 121.005 132.021C119.599 132.021 118.445 130.868 118.445 129.461C118.461 128.039 119.599 126.916 121.005 126.916ZM79.0106 126.916C80.4173 126.916 81.571 128.039 81.571 129.461C81.571 130.868 80.4173 132.021 79.0106 132.021C77.6039 132.021 76.4659 130.868 76.4659 129.461C76.4659 128.039 77.6039 126.916 79.0106 126.916ZM194.073 102.845C194.136 102.845 194.184 102.861 194.247 102.877C195.148 103.098 195.448 104.931 194.927 106.97C194.389 109.009 193.235 110.479 192.334 110.242C191.434 110.021 191.133 108.187 191.671 106.148C192.161 104.236 193.204 102.829 194.073 102.845ZM5.95859 102.845C6.82788 102.829 7.87103 104.236 8.3768 106.148C8.91418 108.187 8.59807 110.021 7.71298 110.242C6.81208 110.463 5.65829 109.009 5.12091 106.97C4.58353 104.931 4.89964 103.098 5.80054 102.877C5.83215 102.861 5.89537 102.845 5.95859 102.845ZM100 94.4049C101.185 94.4049 102.165 95.369 102.165 96.5703C102.165 97.7556 101.185 98.7356 100 98.7356C98.8146 98.7356 97.8505 97.7556 97.8505 96.5703C97.8505 95.369 98.7988 94.4049 100 94.4049ZM182.946 72.1985C181.539 72.1985 180.386 73.3523 180.386 74.759C180.386 76.1656 181.539 77.3036 182.946 77.3036C184.353 77.3036 185.507 76.1656 185.507 74.759C185.507 73.3523 184.369 72.1985 182.946 72.1985ZM17.0539 72.1985C15.6472 72.1985 14.4934 73.3523 14.4934 74.759C14.4934 76.1656 15.6472 77.2878 17.0539 77.2878C18.4606 77.2878 19.6144 76.1498 19.6144 74.7432C19.6144 73.3365 18.4606 72.1985 17.0539 72.1985ZM100 67.5518C98.5933 67.5518 97.4553 68.6897 97.4553 70.0964C97.4553 71.5031 98.5933 72.6569 100 72.6569C101.407 72.6569 102.56 71.5031 102.56 70.0964C102.56 68.6739 101.407 67.5518 100 67.5518ZM49.0122 65.5445C44.4761 72.5778 44.6657 81.6501 47.4316 91.8129C26.379 82.8355 19.1244 109.862 35.0877 118.081C33.8707 111.522 35.0403 104.52 42.1527 103.777C45.9618 103.367 50.4346 104.457 50.972 111.427C51.3513 116.343 47.1946 128.054 34.1078 127.896C25.9365 127.801 17.1961 124.735 13.3397 111.633C11.9014 106.749 11.9172 106.986 16.722 108.977C18.6028 109.752 20.9894 111.364 24.9091 114.762C24.6246 109.278 21.9851 95.3532 19.235 91.2439C15.5682 93.8359 15.1731 96.9022 8.25036 98.8778C10.716 94.1204 12.9919 89.2524 16.4849 83.9734C9.18287 84.5108 4.8048 86.2494 0 87.2925C1.12217 91.9709 2.27596 96.5861 3.9039 100.237C0.300301 107.223 3.31911 110.368 7.04915 113.766C8.56646 115.157 15.426 135.325 11.9488 142.2C10.1312 145.82 11.1901 149.708 13.719 151.415C16.5481 153.327 19.077 155.793 21.3845 158.321C24.3401 161.577 23.6447 161.909 27.2641 159.918C40.0032 152.916 67.8046 148.095 100 148.095C132.195 148.095 159.981 152.916 172.736 159.918C176.355 161.909 175.676 161.577 178.615 158.321C180.923 155.777 183.452 153.327 186.281 151.415C188.81 149.692 189.869 145.82 188.051 142.2C184.59 135.325 191.434 115.157 192.951 113.766C196.681 110.368 199.7 107.223 196.096 100.237C197.74 96.5861 198.878 91.9709 200 87.2925C195.195 86.2494 190.817 84.5108 183.531 83.9576C187.024 89.2366 189.316 94.0888 191.765 98.862C184.843 96.8706 184.448 93.8201 180.781 91.2281C178.031 95.3532 175.375 109.262 175.107 114.746C179.026 111.348 181.413 109.736 183.294 108.962C188.099 106.97 188.114 106.733 186.676 111.617C182.804 124.719 174.079 127.786 165.892 127.881C152.837 128.054 148.664 116.327 149.044 111.411C149.581 104.425 154.054 103.351 157.863 103.762C164.991 104.52 166.161 111.506 164.928 118.065C180.891 109.847 173.637 82.8355 152.568 91.7971C155.334 81.6343 155.524 72.562 150.988 65.5287C145.503 71.0447 139.071 75.7073 141.189 90.6117C137.221 87.7667 133.776 84.906 130.204 85.7278C125.399 86.8342 121.037 88.7783 120.199 96.3174C119.614 101.581 122.633 106.591 126.664 109.831C127.201 104.678 128.149 100.174 133.918 100.032C140.541 99.8736 141.773 105.342 141.568 109.641C141.283 115.6 133.238 122.57 122.933 121.811C112.597 121.037 103.651 112.233 103.809 101.565C107.081 102.355 111.19 105.753 113.087 107.381C113.45 107.697 114.731 107.666 115.094 107.697V85.3959C114.62 85.4117 113.624 85.2695 113.055 85.6172C110.1 87.4032 106.575 93.1089 104.505 92.6031C106.101 86.0597 110.479 78.2045 110.574 75.5334H89.4105C89.5211 78.2045 93.8834 86.0597 95.4797 92.6031C93.425 93.1089 89.9004 87.4032 86.929 85.6172C86.3442 85.2695 85.3643 85.4117 84.8901 85.3959V107.697C85.2537 107.681 86.5339 107.697 86.8974 107.381C88.7941 105.753 92.9034 102.355 96.1751 101.565C96.3332 112.233 87.3716 121.037 77.0507 121.811C66.7457 122.57 58.685 115.6 58.4163 109.641C58.2266 105.342 59.4437 99.8736 66.0661 100.032C71.835 100.174 72.7833 104.663 73.3207 109.831C77.351 106.591 80.3698 101.581 79.785 96.3174C78.9474 88.7783 74.5851 86.8342 69.7803 85.7278C66.2241 84.906 62.7628 87.7667 58.7956 90.6117C60.9293 75.7231 54.4966 71.0447 49.0122 65.5445ZM175.296 64.7542C173.574 64.7542 172.167 66.1609 172.167 67.8995C172.167 69.6381 173.574 71.0447 175.296 71.0447C177.035 71.0447 178.442 69.6381 178.442 67.8995C178.442 66.1609 177.035 64.7542 175.296 64.7542ZM24.7037 64.7542C22.9651 64.7542 21.5584 66.1609 21.5584 67.8995C21.5584 69.6381 22.9651 71.0447 24.7037 71.0447C26.4422 71.0447 27.8489 69.6381 27.8489 67.8995C27.8489 66.1609 26.4422 64.7542 24.7037 64.7542ZM100 58.2266C98.056 58.2266 96.4754 59.8072 96.4754 61.767C96.4754 63.7111 98.0401 65.2916 100 65.2916C101.96 65.2916 103.54 63.7269 103.54 61.767C103.525 59.823 101.944 58.2266 100 58.2266ZM165.892 57.6735C163.948 57.6735 162.352 59.254 162.352 61.2138C162.352 63.1737 163.932 64.7542 165.892 64.7542C167.836 64.7542 169.417 63.1737 169.417 61.2138C169.417 59.254 167.852 57.6735 165.892 57.6735ZM34.1078 57.6735C32.1637 57.6735 30.5832 59.254 30.5832 61.2138C30.5832 63.1737 32.1479 64.7542 34.1078 64.7542C36.0676 64.7542 37.6482 63.1737 37.6482 61.2138C37.6482 59.254 36.0676 57.6735 34.1078 57.6735ZM155.318 51.0194C153.264 51.0194 151.573 52.679 151.573 54.7495C151.573 56.8042 153.264 58.4795 155.318 58.4795C157.373 58.4795 159.049 56.82 159.049 54.7495C159.033 52.6948 157.373 51.0194 155.318 51.0194ZM44.6973 51.0194C42.6426 51.0194 40.9673 52.679 40.9673 54.7495C40.9673 56.8042 42.6268 58.4795 44.6973 58.4795C46.752 58.4795 48.4432 56.82 48.4432 54.7495C48.4432 52.6948 46.752 51.0194 44.6973 51.0194ZM100 47.7319C97.724 47.7319 95.8748 49.5812 95.8748 51.8571C95.8748 54.1331 97.724 55.9823 100 55.9823C102.276 55.9823 104.125 54.1331 104.125 51.8571C104.109 49.5812 102.276 47.7319 100 47.7319ZM112.281 47.2104L112.391 78.7419L116.912 78.6787L116.769 52.7422C130.71 55.1446 143.986 60.6923 154.639 66.6034C165.75 72.7833 174.095 79.4215 177.082 82.6458L180.575 79.4057C176.861 75.407 168.453 68.8162 156.962 62.4309C145.488 56.0455 131.042 49.9921 115.647 47.6845L112.281 47.2104ZM144.919 45.8195C142.706 45.8195 140.904 47.6213 140.904 49.834C140.904 52.0626 142.706 53.8644 144.919 53.8644C147.147 53.8644 148.933 52.0468 148.933 49.834C148.933 47.6213 147.131 45.8195 144.919 45.8195ZM55.0972 45.8195C52.8845 45.8195 51.0827 47.6213 51.0827 49.834C51.0827 52.0626 52.8845 53.8644 55.0972 53.8644C57.3257 53.8644 59.1117 52.0468 59.1117 49.834C59.1117 47.6213 57.3099 45.8195 55.0972 45.8195ZM133.144 40.2402C130.646 40.2402 128.639 42.2633 128.639 44.7447C128.639 47.242 130.662 49.2492 133.144 49.2492C135.641 49.2492 137.648 47.2262 137.648 44.7447C137.648 42.2475 135.641 40.2402 133.144 40.2402ZM66.8563 40.2402C64.3591 40.2402 62.3518 42.2633 62.3518 44.7447C62.3518 47.242 64.3749 49.2492 66.8563 49.2492C69.3536 49.2492 71.3608 47.2262 71.3608 44.7447C71.3766 42.2475 69.3536 40.2402 66.8563 40.2402ZM120.199 36.9053C117.496 36.9053 115.3 39.1023 115.3 41.805C115.3 44.5077 117.496 46.6888 120.199 46.6888C122.902 46.6888 125.115 44.5077 125.115 41.805C125.115 39.1023 122.918 36.9053 120.199 36.9053ZM79.8008 36.9053C77.0982 36.9053 74.8854 39.1023 74.8854 41.805C74.8854 44.5077 77.0823 46.6888 79.8008 46.6888C82.5036 46.6888 84.7005 44.5077 84.7005 41.805C84.7005 39.1023 82.5036 36.9053 79.8008 36.9053ZM86.6762 47.2262L86.5655 78.7577L82.0452 78.6787L82.1874 52.7422C68.2472 55.1446 54.9708 60.6923 44.318 66.6034C33.2069 72.7833 24.8617 79.4215 21.8745 82.6458L18.3815 79.4057C22.0958 75.407 30.5042 68.8162 41.9946 62.4467C53.4693 56.0613 67.9153 50.0079 83.3096 47.7003L86.6762 47.2262ZM97.5818 24.0398C92.4767 24.8775 88.9363 29.224 88.9363 34.582C88.9363 40.5405 93.7569 45.377 99.7155 45.377C105.674 45.377 110.511 40.5405 110.511 34.582C110.511 29.3504 106.78 25.004 101.849 24.024V17.0855L109.309 21.3845H110.653V9.11965H109.309L101.849 13.9719V9.70444L106.496 1.84922V0H93.1721L93.1247 1.92824L97.6292 9.56219H97.5818V13.798L90.2956 9.15126H88.9363L88.9679 21.3845L90.2639 21.3687L97.566 17.2278V24.0398H97.5818ZM101.849 25.9839V33.3966C104.046 32.9382 105.959 31.8002 107.318 30.2513C106.164 28.1808 104.188 26.6161 101.849 25.9839ZM97.5818 33.4282V25.8732C95.1004 26.4106 93.0141 27.9753 91.7654 30.0933C93.1721 31.7686 95.2268 32.9856 97.5818 33.4282ZM106.717 39.9715C104.963 38.5017 102.608 37.6008 100.032 37.6008C97.1392 37.6008 94.5314 38.7387 92.7296 40.5405C94.3733 42.4214 96.7915 43.6226 99.4942 43.6226C102.466 43.6226 105.089 42.1843 106.717 39.9715Z" fill="url(#paint0_linear)"/>
</g>
<defs>
<linearGradient id="paint0_linear" x1="1.45834" y1="87.6403" x2="-105.523" y2="151.255" gradientUnits="userSpaceOnUse">
<stop stop-color="#BDBBBE"/>
<stop offset="1" stop-color="#9D9EA3"/>
</linearGradient>
</defs>
</svg>
