<svg width="200" height="24" viewBox="0 0 200 24" fill="none" xmlns="http://www.w3.org/2000/svg">
<path fill-rule="evenodd" clip-rule="evenodd" d="M63.1406 21.6466H57.9178V7.79982L54.1131 16.7408H50.539L46.7343 7.79982V21.6466H41.7939V0.755371H47.8411L52.4701 11.0684L57.0877 0.755371H63.1348V21.6466H63.1406ZM65.2101 21.6466L72.2718 0.755371H77.9962L85.0579 21.6466H79.6564L78.3421 17.3807H71.7818L70.4733 21.6466H65.2101ZM77.1949 13.5933L75.062 6.71029L72.9233 13.5933H77.1949ZM95.5785 22.0847C92.7711 22.0847 90.6151 21.4045 89.1047 20.0498C87.5944 18.6951 86.8392 16.712 86.8392 14.1006V0.755371H92.0851V13.7951C92.0851 15.242 92.356 16.3258 92.9037 17.0348C93.4513 17.7497 94.3391 18.1013 95.5785 18.1013C96.7833 18.1013 97.671 17.7612 98.236 17.0752C98.8009 16.395 99.0834 15.2997 99.0834 13.7951V0.755371H104.329V14.0891C104.329 16.6601 103.591 18.6374 102.121 20.0209C100.651 21.3929 98.4723 22.0847 95.5785 22.0847ZM126.27 21.6466H121.214L113.161 7.07923V21.6466H108.359V0.755371H114.804L121.468 12.7286V0.755371H126.27V21.6466ZM144.498 4.73877H135.729V8.68181H143.8V12.6652H135.729V21.6466H130.507V0.755371H144.498V4.73877ZM147.207 21.6466V0.755371H161.336V4.73877H152.424V8.40511H160.633V12.3885H152.424V17.6632H161.336V21.6466H147.207ZM178.838 21.6466H164.882V0.755371H170.133V17.6632H178.838V21.6466ZM200 11.2183C200 13.1667 199.573 14.9077 198.72 16.4468C197.873 17.986 196.795 19.162 195.492 19.9864C194.408 20.6896 193.226 21.1393 191.952 21.3411C190.673 21.5428 189.312 21.6408 187.871 21.6408H181.334V0.755371H187.819C189.283 0.755371 190.667 0.85337 191.941 1.03784C193.226 1.22807 194.426 1.67772 195.55 2.39831C196.922 3.27454 198.011 4.46206 198.807 5.95512C199.602 7.44241 200 9.20063 200 11.2183ZM194.61 11.1837C194.61 9.80016 194.374 8.62993 193.901 7.64993C193.428 6.66994 192.702 5.909 191.716 5.35559C191.007 4.95783 190.258 4.7503 189.479 4.70995C188.701 4.66959 187.767 4.6523 186.684 4.6523H186.586V17.7324H186.684C187.86 17.7324 188.851 17.7151 189.664 17.669C190.471 17.6286 191.243 17.3807 191.97 16.9195C192.834 16.3777 193.492 15.6283 193.936 14.6713C194.385 13.7201 194.61 12.5557 194.61 11.1837Z" fill="white"/>
<path fill-rule="evenodd" clip-rule="evenodd" d="M17.1154 0C26.5406 0 34.2249 5.30927 34.2249 11.8234C34.2249 12.1865 34.2019 12.544 34.1558 12.9014H24.6267L26.581 5.97798H22.8282L19.744 10.5148L21.0238 5.97798H17.3171L14.1523 10.6358L15.4666 5.97798C11.0624 5.97798 6.65821 5.97798 2.25399 5.97798C5.20551 2.40964 10.7627 0 17.1154 0ZM31.9767 17.6745C29.0252 21.2371 23.4623 23.6467 17.1154 23.6467C7.69009 23.6467 0 18.3375 0 11.8234C0 11.4602 0.0288232 11.1028 0.069176 10.7511H10.313L8.35879 17.6745H12.1577L15.2303 13.0167L13.9159 17.6745H17.7149L20.822 12.8956L19.4731 17.6745C23.6467 17.6745 27.8088 17.6745 31.9767 17.6745Z" fill="white"/>
</svg>
