<svg width="30" height="30" viewBox="0 0 30 30" fill="none" xmlns="http://www.w3.org/2000/svg">
<path d="M0.25 29.75V0.25H29.75V29.75H0.25Z" stroke="white" stroke-width="0.5"/>
<path d="M16.6786 16.1095H16.4286V16.3595V25.9913H12.9452V16.3477V16.0977H12.6952H9.61182V12.7443H12.6952H12.9452V12.4943V9.64559C12.9452 8.04859 13.4333 6.84445 14.2493 6.03958C15.066 5.23388 16.2388 4.80103 17.6597 4.80103C18.8512 4.80103 19.8894 4.87672 20.3884 4.92768V7.90623H18.5935C17.756 7.90623 17.1879 8.10612 16.8417 8.51856C16.5038 8.92119 16.4286 9.46945 16.4286 10.0357V12.5061V12.7561H16.6786H20.2123L19.7803 16.1095H16.6786Z" stroke="white" stroke-width="0.5"/>
</svg>
