<svg width="30" height="18" viewBox="0 0 30 18" fill="none" xmlns="http://www.w3.org/2000/svg">
<path fill-rule="evenodd" clip-rule="evenodd" d="M0 12H30V18H0V12Z" fill="#00A651"/>
<path fill-rule="evenodd" clip-rule="evenodd" d="M0 0H30V12H0V0Z" fill="#ED1C24"/>
<path fill-rule="evenodd" clip-rule="evenodd" d="M0 0.0157776H4.28607V18.0006H0V0.0157776Z" fill="white"/>
<path fill-rule="evenodd" clip-rule="evenodd" d="M1.35563 3.35465H1.21175V3.08961H1.07545V2.817H0.908851V3.08961H0.742255V3.35465H0.621094V3.74085H0.742255V4.00589H0.908851V4.27851H1.07545V4.00589H1.21175V3.74085H1.35563V3.35465Z" fill="#EF4123"/>
<path fill-rule="evenodd" clip-rule="evenodd" d="M3.64225 3.35465H3.52867V3.08961H3.36207V2.817H3.19547V3.08961H3.02888V3.35465H2.90771V3.74085H3.02888V4.00589H3.19547V4.27851H3.36207V4.00589H3.52867V3.74085H3.64225V3.35465Z" fill="#EF4123"/>
<path fill-rule="evenodd" clip-rule="evenodd" d="M2.8626 3.35465H2.71872V3.08961H2.55212V2.817H2.38553V3.08961H2.24165V3.35465H2.19621H2.09777H2.07505V3.08961H1.90846V2.817H1.74186V3.08961H1.57526V3.35465H1.4541V3.74085H1.57526V4.00589H1.74186V4.27851H1.90846V4.00589H2.07505V3.74085H2.09777H2.19621H2.24165V4.00589H2.38553V4.27851H2.55212V4.00589H2.71872V3.74085H2.8626V3.35465Z" fill="#EF4123"/>
<path fill-rule="evenodd" clip-rule="evenodd" d="M3.64255 1.29491H3.47595V0.976863H3.36236V0.666388H3.19577V0.393776H3.05189V0.106018H2.64297V0.393776H2.49909V0.666388H2.33249V0.976863H2.21891V1.29491H2.19619H2.05231H2.02202V0.976863H1.90843V0.666388H1.74183V0.393776H1.62067V0.106018H1.18904V0.393776H1.07545V0.666388H0.908851V0.976863H0.78769V1.29491H0.621094V1.69626H0.78769V1.92343H0.908851V2.23391H1.07545V2.50652H1.18904V2.79428H1.28748V3.04417H1.52223V2.79428H1.62067V2.50652H1.74183V2.23391H1.90843V1.92343H2.02202V1.69626H2.05231H2.19619H2.21891V1.92343H2.33249V2.23391H2.49909V2.50652H2.64297V2.79428H2.74141V3.04417H2.97616V2.79428H3.05189V2.50652H3.19577V2.23391H3.36236V1.92343H3.47595V1.69626H3.64255V1.29491Z" fill="#EF4123"/>
<path fill-rule="evenodd" clip-rule="evenodd" d="M1.35563 14.5469H1.21175V14.8195H1.07545V15.0845H0.908851V14.8195H0.742255V14.5469H0.621094V14.1683H0.742255V13.9184H0.908851V13.6533H1.07545V13.9184H1.21175V14.1683H1.35563V14.5469Z" fill="#EF4123"/>
<path fill-rule="evenodd" clip-rule="evenodd" d="M3.64225 14.5469H3.52867V14.8195H3.36207V15.0845H3.19547V14.8195H3.02888V14.5469H2.90771V14.1683H3.02888V13.9184H3.19547V13.6533H3.36207V13.9184H3.52867V14.1683H3.64225V14.5469Z" fill="#EF4123"/>
<path fill-rule="evenodd" clip-rule="evenodd" d="M2.8626 14.5469H2.71872V14.8195H2.55212V15.0845H2.38553V14.8195H2.24165V14.5469H2.19621H2.09777H2.07505V14.8195H1.90846V15.0845H1.74186V14.8195H1.57526V14.5469H1.4541V14.1683H1.57526V13.9184H1.74186V13.6533H1.90846V13.9184H2.07505V14.1683H2.09777H2.19621H2.24165V13.9184H2.38553V13.6533H2.55212V13.9184H2.71872V14.1683H2.8626V14.5469Z" fill="#EF4123"/>
<path fill-rule="evenodd" clip-rule="evenodd" d="M3.64255 16.6142H3.47595V16.9247H3.36236V17.2427H3.19577V17.5078H3.05189V17.8031H2.64297V17.5078H2.49909V17.2427H2.33249V16.9247H2.21891V16.6142H2.19619H2.05231H2.02202V16.9247H1.90843V17.2427H1.74183V17.5078H1.62067V17.8031H1.18904V17.5078H1.07545V17.2427H0.908851V16.9247H0.78769V16.6142H0.621094V16.2053H0.78769V15.9857H0.908851V15.6676H1.07545V15.4026H1.18904V15.1073H1.28748V14.8649H1.52223V15.1073H1.62067V15.4026H1.74183V15.6676H1.90843V15.9857H2.02202V16.2053H2.05231H2.19619H2.21891V15.9857H2.33249V15.6676H2.49909V15.4026H2.64297V15.1073H2.74141V14.8649H2.97616V15.1073H3.05189V15.4026H3.19577V15.6676H3.36236V15.9857H3.47595V16.2053H3.64255V16.6142Z" fill="#EF4123"/>
<path fill-rule="evenodd" clip-rule="evenodd" d="M3.33941 6.96676V6.679H3.47572V6.36096H3.57416V6.09592H3.67261V5.58098H3.55145V5.26293H3.453V5.02061H3.36213V4.72528H3.24097V4.45267H3.09709V4.2785H2.97593V4.00589H2.78662V4.2785H2.64274V4.45267H2.52915V4.72528H2.40799V5.02061H2.28683V5.26293H2.19596V5.44468H2.0748V5.26293H1.97635V5.02061H1.88548V4.72528H1.76432V4.45267H1.64316V4.2785H1.49928V4.00589H1.30997V4.2785H1.16609V4.45267H1.04493V4.72528H0.931337V5.02061H0.832894V5.26293H0.742023V5.58098H0.598145V6.09592H0.689015V6.36096H0.810176V6.679H0.954055V6.96676H1.14337V6.679H1.28725V6.36096H1.40841V6.0732H1.21152V5.80059H1.522V6.02776H1.71888V6.33824H1.88548V6.679H1.7416V6.94404H1.64316V7.21666H1.55229V7.4817H1.40841V7.73159H1.30997V7.93605H1.16609V8.22381H0.976773V7.91333H0.855612V7.66344H0.742023V7.45898H0.620862V8.11022H0.742023V8.38283H0.832894V8.557H0.954055V8.85233H1.07522V9.05679H0.954055V9.34455H0.832894V9.52629H0.742023V9.79133H0.620862V10.4426H0.742023V10.2457H0.855612V9.99579H0.976773V9.68531H1.16609V9.97307H1.30997V10.1775H1.40841V10.4198H1.55229V10.6925H1.64316V10.9575H1.7416V11.2301H1.88548V11.5633H1.71888V11.8814H1.522V12.101H1.21152V11.8359H1.40841V11.5406H1.28725V11.2301H1.14337V10.9348H0.954055V11.2301H0.810176V11.5406H0.689015V11.8132H0.598145V12.3281H0.742023V12.6462H0.832894V12.8885H0.931337V13.1838H1.04493V13.4489H1.16609V13.6533H1.30997V13.8957H1.49928V13.6533H1.64316V13.4489H1.76432V13.1838H1.88548V12.8885H1.97635V12.6462H2.0748V12.4644H2.19596V12.6462H2.28683V12.8885H2.40799V13.1838H2.52915V13.4489H2.64274V13.6533H2.78662V13.8957H2.97593V13.6533H3.09709V13.4489H3.24097V13.1838H3.36213V12.8885H3.453V12.6462H3.55145V12.3281H3.67261V11.8132H3.57416V11.5406H3.47572V11.2301H3.33941V10.9348H3.11981V11.2301H2.97593V11.5406H2.88506V11.8359H3.05166V12.101H2.74118V11.8814H2.57458V11.5633H2.38527V11.2301H2.52915V10.9575H2.62002V10.6925H2.71846V10.4198H2.86234V10.1775H2.97593V9.97307H3.11981V9.68531H3.30912V9.99579H3.43028V10.2457H3.52873V10.4426H3.64232V9.79133H3.55145V9.52629H3.43028V9.34455H3.30912V9.05679H3.19553V8.85233H3.30912V8.557H3.43028V8.38283H3.55145V8.11022H3.64232V7.45898H3.52873V7.66344H3.43028V7.91333H3.30912V8.22381H3.11981V7.93605H2.97593V7.73159H2.86234V7.4817H2.71846V7.21666H2.62002V6.94404H2.52915V6.679H2.38527V6.33824H2.57458V6.02776H2.74118V5.80059H3.05166V6.0732H2.88506V6.36096H2.97593V6.679H3.11981V6.96676H3.33941Z" fill="#EF4123"/>
<path fill-rule="evenodd" clip-rule="evenodd" d="M2.07471 4.2558H2.21859V4.81616H2.07471V4.2558Z" fill="#EF4123"/>
<path fill-rule="evenodd" clip-rule="evenodd" d="M2.07471 17.0383H2.21859V17.7122H2.07471V17.0383Z" fill="#EF4123"/>
<path fill-rule="evenodd" clip-rule="evenodd" d="M2.07471 15.0618H2.21859V15.6222H2.07471V15.0618Z" fill="#EF4123"/>
<path fill-rule="evenodd" clip-rule="evenodd" d="M2.07471 13.0475H2.21859V13.6079H2.07471V13.0475Z" fill="#EF4123"/>
<path fill-rule="evenodd" clip-rule="evenodd" d="M0.598145 6.6563H0.711732V7.03492H0.598145V6.6563Z" fill="#EF4123"/>
<path fill-rule="evenodd" clip-rule="evenodd" d="M3.55151 6.6563H3.69539V7.03492H3.55151V6.6563Z" fill="#EF4123"/>
<path fill-rule="evenodd" clip-rule="evenodd" d="M0.598145 4.36938H0.711732V4.74802H0.598145V4.36938Z" fill="#EF4123"/>
<path fill-rule="evenodd" clip-rule="evenodd" d="M3.55151 4.36938H3.69539V4.74802H3.55151V4.36938Z" fill="#EF4123"/>
<path fill-rule="evenodd" clip-rule="evenodd" d="M0.598145 2.21118H0.711732V2.59738H0.598145V2.21118Z" fill="#EF4123"/>
<path fill-rule="evenodd" clip-rule="evenodd" d="M3.55151 2.21118H3.69539V2.59738H3.55151V2.21118Z" fill="#EF4123"/>
<path fill-rule="evenodd" clip-rule="evenodd" d="M0.598145 0.24231H0.711732V0.620938H0.598145V0.24231Z" fill="#EF4123"/>
<path fill-rule="evenodd" clip-rule="evenodd" d="M3.55151 0.24231H3.69539V0.620938H3.55151V0.24231Z" fill="#EF4123"/>
<path fill-rule="evenodd" clip-rule="evenodd" d="M0.598145 10.8742H0.711732V11.2528H0.598145V10.8742Z" fill="#EF4123"/>
<path fill-rule="evenodd" clip-rule="evenodd" d="M3.55151 10.8742H3.69539V11.2528H3.55151V10.8742Z" fill="#EF4123"/>
<path fill-rule="evenodd" clip-rule="evenodd" d="M0.598145 13.1611H0.711732V13.5397H0.598145V13.1611Z" fill="#EF4123"/>
<path fill-rule="evenodd" clip-rule="evenodd" d="M3.55151 13.1611H3.69539V13.5397H3.55151V13.1611Z" fill="#EF4123"/>
<path fill-rule="evenodd" clip-rule="evenodd" d="M0.598145 15.3117H0.711732V15.6903H0.598145V15.3117Z" fill="#EF4123"/>
<path fill-rule="evenodd" clip-rule="evenodd" d="M3.55151 15.3117H3.69539V15.6903H3.55151V15.3117Z" fill="#EF4123"/>
<path fill-rule="evenodd" clip-rule="evenodd" d="M0.598145 17.3109H0.711732V17.6668H0.598145V17.3109Z" fill="#EF4123"/>
<path fill-rule="evenodd" clip-rule="evenodd" d="M3.55151 17.3109H3.69539V17.6668H3.55151V17.3109Z" fill="#EF4123"/>
<path fill-rule="evenodd" clip-rule="evenodd" d="M1.68855 1.31763H1.57496V0.976868H1.4538V0.757263H1.35535V0.976868H1.24177V1.31763H1.12061V1.67354H1.24177V1.92344H1.35535V2.18848H1.4538V1.92344H1.57496V1.67354H1.68855V1.31763Z" fill="white"/>
<path fill-rule="evenodd" clip-rule="evenodd" d="M0.931396 3.40009H1.02227V3.71813H0.931396V3.40009Z" fill="white"/>
<path fill-rule="evenodd" clip-rule="evenodd" d="M1.7644 3.40009H1.85528V3.71813H1.7644V3.40009Z" fill="white"/>
<path fill-rule="evenodd" clip-rule="evenodd" d="M2.40796 3.40009H2.49883V3.71813H2.40796V3.40009Z" fill="white"/>
<path fill-rule="evenodd" clip-rule="evenodd" d="M3.24121 3.40009H3.30936V3.71813H3.24121V3.40009Z" fill="white"/>
<path fill-rule="evenodd" clip-rule="evenodd" d="M3.11993 1.31763H3.02906V0.976868H2.9079V0.757263H2.78674V0.976868H2.66558V1.31763H2.57471V1.67354H2.66558V1.92344H2.78674V2.18848H2.9079V1.92344H3.02906V1.67354H3.11993V1.31763Z" fill="white"/>
<path fill-rule="evenodd" clip-rule="evenodd" d="M0.931396 14.191H1.02227V14.5015H0.931396V14.191Z" fill="white"/>
<path fill-rule="evenodd" clip-rule="evenodd" d="M1.7644 14.191H1.85528V14.5015H1.7644V14.191Z" fill="white"/>
<path fill-rule="evenodd" clip-rule="evenodd" d="M2.40796 14.191H2.49883V14.5015H2.40796V14.191Z" fill="white"/>
<path fill-rule="evenodd" clip-rule="evenodd" d="M3.24121 14.191H3.30936V14.5015H3.24121V14.191Z" fill="white"/>
<path fill-rule="evenodd" clip-rule="evenodd" d="M2.40831 7.57258V7.84519H2.49918V8.04208H2.59763V8.24654H2.74151V8.47372H2.95354V9.43544H2.74151V9.66261H2.59763V9.8595H2.49918V10.064H2.40831V10.329H2.30987V10.6016H2.24172V10.8742H2.02211V10.6016H1.97668V10.329H1.85552V10.064H1.76464V9.8595H1.6662V9.66261H1.52232V9.43544H1.33301V8.47372H1.52232V8.24654H1.6662V8.04208H1.76464V7.84519H1.85552V7.57258H1.97668V7.30754H2.02211V7.03493H2.24172V7.30754H2.30987V7.57258H2.40831Z" fill="white"/>
<path fill-rule="evenodd" clip-rule="evenodd" d="M2.07471 0.151459H2.21859V0.8027H2.07471V0.151459Z" fill="#EF4123"/>
<path fill-rule="evenodd" clip-rule="evenodd" d="M2.07471 2.23392H2.21859V2.79429H2.07471V2.23392Z" fill="#EF4123"/>
<path fill-rule="evenodd" clip-rule="evenodd" d="M1.33301 1.29492H1.47689V1.65083H1.33301V1.29492Z" fill="#EF4123"/>
<path fill-rule="evenodd" clip-rule="evenodd" d="M2.78662 1.29492H2.90778V1.65083H2.78662V1.29492Z" fill="#EF4123"/>
<path fill-rule="evenodd" clip-rule="evenodd" d="M2.33208 8.85235V8.6706H2.47596V8.11023H2.30936V8.33741H2.21849V8.60245H2.07461V8.33741H1.95345V8.11023H1.80957V8.6706H1.93073V8.85235H1.99889V9.07952H1.93073V9.25369H1.80957V9.79135H1.95345V9.59446H2.07461V9.29913H2.21849V9.59446H2.30936V9.79135H2.47596V9.25369H2.33208V9.07952H2.28664V8.85235H2.33208Z" fill="#EF4123"/>
<path fill-rule="evenodd" clip-rule="evenodd" d="M1.55225 8.76146H1.68855V9.14008H1.55225V8.76146Z" fill="#EF4123"/>
<path fill-rule="evenodd" clip-rule="evenodd" d="M2.07471 7.59529H2.21859V7.97392H2.07471V7.59529Z" fill="#EF4123"/>
<path fill-rule="evenodd" clip-rule="evenodd" d="M2.59717 8.76146H2.74105V9.14008H2.59717V8.76146Z" fill="#EF4123"/>
<path fill-rule="evenodd" clip-rule="evenodd" d="M2.07471 9.95036H2.21859V10.329H2.07471V9.95036Z" fill="#EF4123"/>
<path fill-rule="evenodd" clip-rule="evenodd" d="M1.68855 16.5688H1.57496V16.9247H1.4538V17.1519H1.35535V16.9247H1.24177V16.5688H1.12061V16.2053H1.24177V15.9857H1.35535V15.7131H1.4538V15.9857H1.57496V16.2053H1.68855V16.5688Z" fill="white"/>
<path fill-rule="evenodd" clip-rule="evenodd" d="M3.11993 16.5688H3.02906V16.9247H2.9079V17.1519H2.78674V16.9247H2.66558V16.5688H2.57471V16.2053H2.66558V15.9857H2.78674V15.7131H2.9079V15.9857H3.02906V16.2053H3.11993V16.5688Z" fill="white"/>
<path fill-rule="evenodd" clip-rule="evenodd" d="M1.33301 16.2507H1.47689V16.6142H1.33301V16.2507Z" fill="#EF4123"/>
<path fill-rule="evenodd" clip-rule="evenodd" d="M2.78662 16.2507H2.90778V16.6142H2.78662V16.2507Z" fill="#EF4123"/>
</svg>
