<svg width="300" height="36" viewBox="0 0 300 36" fill="none" xmlns="http://www.w3.org/2000/svg">
<path fill-rule="evenodd" clip-rule="evenodd" d="M94.7109 32.4696H86.8767V11.6994L81.1696 25.111H75.8085L70.1014 11.6994V32.4696H62.6909V1.13276H71.7617L78.7052 16.6023L85.6315 1.13276H94.7022V32.4696H94.7109ZM97.8152 32.4696L108.408 1.13276H116.994L127.587 32.4696H119.485L117.513 26.0708H107.673L105.71 32.4696H97.8152ZM115.792 20.3897L112.593 10.0651L109.385 20.3897H115.792ZM143.368 33.1268C139.157 33.1268 135.923 32.1064 133.657 30.0744C131.392 28.0423 130.259 25.0677 130.259 21.1506V1.13276H138.128V20.6923C138.128 22.8627 138.534 24.4884 139.355 25.552C140.177 26.6242 141.509 27.1517 143.368 27.1517C145.175 27.1517 146.507 26.6415 147.354 25.6125C148.201 24.5921 148.625 22.9492 148.625 20.6923V1.13276H156.494V21.1333C156.494 24.9899 155.387 27.9558 153.182 30.0311C150.977 32.0891 147.709 33.1268 143.368 33.1268ZM189.404 32.4696H181.821L169.741 10.6185V32.4696H162.538V1.13276H172.206L182.201 19.0926V1.13276H189.404V32.4696ZM216.746 7.10786H203.594V13.0224H215.7V18.9975H203.594V32.4696H195.76V1.13276H216.746V7.10786ZM220.81 32.4696V1.13276H242.004V7.10786H228.636V12.6074H240.949V18.5825H228.636V26.4945H242.004V32.4696H220.81ZM268.257 32.4696H247.322V1.13276H255.2V26.4945H268.257V32.4696ZM300 16.8271C300 19.7498 299.36 22.3612 298.08 24.67C296.809 26.9787 295.192 28.7427 293.238 29.9792C291.612 31.0342 289.84 31.7086 287.929 32.0113C286.009 32.3139 283.968 32.4609 281.807 32.4609H272.001V1.13276H281.729C283.925 1.13276 286 1.27976 287.911 1.55646C289.84 1.84181 291.638 2.51628 293.324 3.59716C295.382 4.91151 297.017 6.6928 298.21 8.93238C299.403 11.1633 300 13.8007 300 16.8271ZM291.915 16.7752C291.915 14.6999 291.56 12.9446 290.851 11.4746C290.142 10.0046 289.053 8.8632 287.574 8.03309C286.511 7.43644 285.386 7.12515 284.219 7.06462C283.052 7.00409 281.651 6.97815 280.025 6.97815H279.878V26.5983H280.025C281.789 26.5983 283.277 26.5723 284.496 26.5031C285.706 26.4426 286.865 26.0708 287.955 25.379C289.252 24.5662 290.237 23.4421 290.903 22.0067C291.578 20.5799 291.915 18.8332 291.915 16.7752Z" fill="white"/>
<path fill-rule="evenodd" clip-rule="evenodd" d="M25.673 0C39.8109 0 51.3374 7.96391 51.3374 17.7351C51.3374 18.2798 51.3028 18.8159 51.2336 19.352H36.9401L39.8714 8.96697H34.2422L29.6161 15.7722L31.5357 8.96697H25.9757L21.2284 15.9538L23.2 8.96697C16.5936 8.96697 9.98732 8.96697 3.38099 8.96697C7.80827 3.61446 16.144 0 25.673 0ZM47.9651 26.5118C43.5378 31.8556 35.1934 35.4701 25.673 35.4701C11.5351 35.4701 0 27.5062 0 17.7351C0 17.1903 0.0432349 16.6542 0.103764 16.1267H15.4695L12.5382 26.5118H18.2366L22.8454 19.525L20.8739 26.5118H26.5723L31.2331 19.3434L29.2097 26.5118C35.4701 26.5118 41.7133 26.5118 47.9651 26.5118Z" fill="white"/>
</svg>
