<svg width="24" height="24" viewBox="0 0 24 24" fill="none" xmlns="http://www.w3.org/2000/svg">
<path d="M19.2893 24.0001C18.2907 24.0001 17.0847 23.7499 15.7584 23.2494C12.8507 22.1531 9.68712 19.9865 6.85047 17.1499C4.01301 14.3124 1.84637 11.148 0.749327 8.24031C-0.247619 5.59659 -0.250041 3.42672 0.743676 2.43381C0.886558 2.29092 1.03186 2.13755 1.18201 1.97933C2.08854 1.02597 3.11294 -0.0468527 4.47072 0.00158189C5.40631 0.0403296 6.31285 0.621545 7.24118 1.77671C9.98419 5.18812 8.74749 6.40383 7.31625 7.81327L7.06358 8.06352C6.82948 8.29762 6.38711 9.38175 10.5024 13.4971C11.8457 14.8403 12.9912 15.8236 13.9066 16.4185C14.483 16.793 15.5138 17.3597 15.9368 16.9367L16.1911 16.68C17.5989 15.252 18.8146 14.0194 22.2236 16.76C23.3788 17.6883 23.9592 18.594 23.9979 19.5312C24.0536 20.8882 22.9727 21.915 22.0186 22.8207C21.8612 22.9709 21.7078 23.1162 21.5649 23.2583C21.0717 23.7523 20.283 24.0001 19.2893 24.0001ZM4.37385 0.807211C3.40919 0.807211 2.53818 1.72424 1.76726 2.53552C1.61227 2.69858 1.46212 2.8568 1.3144 3.00453C0.574155 3.74396 0.649229 5.687 1.50491 7.95616C2.5624 10.7589 4.66365 13.8216 7.422 16.5799C10.1795 19.3367 13.2406 21.4379 16.0442 22.4946C18.3133 23.3519 20.2564 23.4246 20.995 22.6859C21.1427 22.5382 21.3009 22.3881 21.464 22.2339C22.293 21.446 23.2335 20.5532 23.1923 19.5627C23.1641 18.8822 22.6684 18.15 21.7191 17.3872C18.8784 15.1027 18.0841 15.9091 16.7666 17.2451L16.5083 17.5058C15.8787 18.1363 14.8559 17.9966 13.4674 17.0942C12.5044 16.4677 11.3145 15.449 9.93253 14.0662C6.51708 10.6515 5.42488 8.56159 6.49367 7.49038L6.75118 7.2361C8.0904 5.91867 8.89845 5.12354 6.61314 2.28124C5.84868 1.33273 5.11732 0.837079 4.43681 0.808018C4.41583 0.807211 4.39484 0.807211 4.37385 0.807211Z" fill="white"/>
</svg>
