<svg width="30" height="30" viewBox="0 0 30 30" fill="none" xmlns="http://www.w3.org/2000/svg">
<path d="M0.25 29.75V0.25H29.75V29.75H0.25Z" stroke="white" stroke-width="0.5"/>
<path d="M13.4575 18.0948L13.6999 18.1559L13.4575 18.0948L13.4575 18.0949L13.4574 18.0953L13.457 18.0967L13.4555 18.1026L13.4498 18.1254L13.4278 18.2125L13.3482 18.5275C13.2817 18.7905 13.1916 19.1465 13.0971 19.5187C12.9077 20.2643 12.7017 21.0708 12.6314 21.3285C12.2094 22.8593 11.0738 24.4107 10.6771 24.9277C10.5853 24.2703 10.3639 22.3476 10.7399 20.7547L10.74 20.7544C10.8521 20.2763 11.2361 18.6695 11.5923 17.1813C11.7703 16.4374 11.9413 15.7234 12.0678 15.1954L12.2195 14.5623L12.2616 14.387L12.2726 14.341L12.2754 14.3293L12.2761 14.3263L12.2763 14.3255L12.2763 14.3254L12.0332 14.267L12.2764 14.3253L12.2976 14.2367L12.2571 14.1557L12.257 14.1556L12.257 14.1554L12.2569 14.1553L12.2569 14.1552L12.2568 14.1551L12.2547 14.1507L12.2448 14.1293C12.2358 14.1095 12.2225 14.0789 12.2061 14.0383C12.1735 13.9569 12.129 13.8357 12.0843 13.6806C11.9948 13.3702 11.905 12.9269 11.905 12.3994C11.905 10.7176 12.859 9.59976 13.9245 9.59976C14.387 9.59976 14.7097 9.77119 14.9217 10.0309C15.1393 10.2974 15.2584 10.6798 15.2584 11.1228C15.2584 11.6193 15.0983 12.26 14.8817 12.9886C14.8227 13.187 14.7596 13.3915 14.6955 13.5996C14.5288 14.1403 14.3546 14.7052 14.225 15.2493L14.2249 15.2498C13.8885 16.6763 14.9509 17.8267 16.324 17.8267C17.563 17.8267 18.566 17.0278 19.2463 15.8408C19.9273 14.6526 20.3092 13.0412 20.3092 11.3119C20.3092 9.96633 19.8545 8.76921 18.9687 7.90863C18.0829 7.04803 16.7894 6.54657 15.1538 6.54657C11.4386 6.54657 9.10003 9.32563 9.10003 12.4349C9.10003 13.5179 9.42552 14.3086 9.93816 14.9118C10.0432 15.0404 10.0719 15.0946 10.0819 15.1326C10.0898 15.1628 10.093 15.2102 10.0549 15.3462L10.0548 15.3467C10.0241 15.4571 9.97912 15.643 9.9357 15.8225L9.93446 15.8276C9.88965 16.0128 9.84658 16.1907 9.81845 16.292C9.79181 16.387 9.75072 16.4205 9.72544 16.4328C9.69906 16.4456 9.64723 16.4559 9.56103 16.4226C8.05496 15.8037 7.30688 14.1244 7.30688 12.1512C7.30688 8.94088 10.0114 5.03711 15.473 5.03711C19.8483 5.03711 22.6934 8.18548 22.6934 11.5483C22.6934 16.0949 20.1731 19.3716 16.5841 19.3716C15.9893 19.3716 15.4115 19.2115 14.9351 18.9602C14.4555 18.7072 14.0976 18.3722 13.9208 18.0388L13.6164 17.4648L13.4575 18.0948Z" stroke="white" stroke-width="0.5"/>
</svg>
