<svg width="82" height="100" viewBox="0 0 82 100" fill="none" xmlns="http://www.w3.org/2000/svg">
<path d="M26.3516 40.2344C25.2834 40.2344 24.4137 41.0934 24.3984 42.16V42.1875C24.3984 43.2655 25.2735 44.1406 26.3516 44.1406C27.4296 44.1406 28.3047 43.2655 28.3047 42.1875C28.3047 42.1776 28.3047 42.17 28.3047 42.16C28.2894 41.0934 27.4197 40.2344 26.3516 40.2344Z" fill="white"/>
<path d="M26.3516 0C13.7341 0 0.960938 3.35464 0.960938 9.76562V70.7031C0.960938 77.1141 13.7341 80.4688 26.3516 80.4688C26.7323 80.4688 27.1099 80.4649 27.4838 80.4596C30.9239 91.9983 41.5585 100 53.6953 100C68.7725 100 81.0391 87.7335 81.0391 72.6562C81.0391 57.579 68.7725 45.3125 53.6953 45.3125C53.0399 45.3125 52.3823 45.3384 51.7254 45.385C51.7269 44.1025 51.7353 24.7459 51.7361 22.2298C51.7384 22.1764 51.7422 22.123 51.7422 22.0703C51.7422 22.0322 51.7384 21.9955 51.7368 21.9582L51.7422 9.76639V9.76562C51.7422 3.35464 38.9691 0 26.3516 0ZM27.6768 64.2448C27.2282 64.2532 26.7849 64.2578 26.3516 64.2578C20.2961 64.2578 14.6298 63.4804 10.397 62.0697C6.02304 60.6117 4.86719 59.0309 4.86719 58.3984V51.5511C9.61038 54.3945 18.0142 55.8594 26.3516 55.8594C28.3741 55.8594 30.3852 55.7739 32.3315 55.6084C30.2792 58.1833 28.6907 61.1198 27.6768 64.2448ZM36.8954 51.0864C33.6735 51.6518 30.0419 51.9531 26.3516 51.9531C20.2961 51.9531 14.6298 51.1757 10.397 49.765C6.02304 48.307 4.86719 46.7262 4.86719 46.0938V39.8491C5.95819 40.4991 7.12396 41.0194 8.32101 41.4574C11.507 42.6521 17.342 43.6974 18.5528 43.6974C19.5316 43.6974 20.3762 42.9634 20.4907 41.9685C20.615 40.8966 19.846 39.9277 18.7748 39.8041C18.15 39.7018 11.2637 39.0121 7.06522 36.6112C5.39285 35.6613 5.18839 35.0891 4.88855 34.5467C4.83743 34.2705 4.88626 34.8175 4.86719 27.5276C9.61038 30.3711 18.0142 31.8359 26.3516 31.8359C32.7351 31.8359 38.7844 31.0059 43.3849 29.4991C45.2328 28.894 46.706 28.2326 47.8474 27.5505C47.8428 34.7176 47.8459 34.4856 47.8428 34.5047C47.7642 34.8709 47.4545 35.2264 47.1874 35.4889C47.1676 35.4965 44.1303 38.6421 33.952 39.801L33.9283 39.8041C32.8564 39.9277 32.0881 40.8966 32.2117 41.9685C32.3269 42.9634 33.1707 43.6974 34.1496 43.6974C36.491 43.6974 44.1525 42.0471 47.8413 39.8582L47.8382 45.9473C43.8709 46.8185 40.1135 48.5756 36.8954 51.0864ZM47.842 34.5154C47.842 34.5139 47.8428 34.5123 47.8428 34.5108C47.8413 34.5169 47.842 34.5154 47.842 34.5154ZM47.8497 22.1375C47.7825 22.7959 46.5084 24.366 42.1688 25.7874C37.9505 27.169 32.333 27.9297 26.3516 27.9297C20.2961 27.9297 14.6298 27.1523 10.397 25.7416C6.02304 24.2836 4.86719 22.7028 4.86719 22.0703V15.2229C9.61038 18.0664 18.0142 19.5312 26.3516 19.5312C34.6874 19.5312 43.1095 18.0664 47.8527 15.2245L47.8497 22.1375ZM10.397 6.09436C14.6298 4.68369 20.2961 3.90625 26.3516 3.90625C32.407 3.90625 38.0734 4.68369 42.3062 6.09436C46.6801 7.55234 47.8359 9.13315 47.8359 9.76562C47.8359 10.3981 46.6801 11.9789 42.3062 13.4369C38.0734 14.8476 32.407 15.625 26.3516 15.625C20.2961 15.625 14.6298 14.8476 10.397 13.4369C6.02304 11.9789 4.86719 10.3981 4.86719 9.76562C4.86719 9.13315 6.02304 7.55234 10.397 6.09436ZM10.397 74.3744C6.02304 72.9164 4.86719 71.3356 4.86719 70.7031V63.8557C9.61038 66.6992 18.0142 68.1641 26.3516 68.1641C26.4736 68.1641 26.598 68.1625 26.7208 68.1625C26.4767 69.6411 26.3516 71.1449 26.3516 72.6562C26.3516 73.967 26.4446 75.2731 26.6293 76.561C26.5362 76.5617 26.4446 76.5625 26.3516 76.5625C20.2961 76.5625 14.6298 75.7851 10.397 74.3744ZM77.1328 72.6562C77.1328 85.5797 66.6187 96.0938 53.6953 96.0938C42.7494 96.0938 33.3653 88.662 30.8743 78.0212C30.8727 78.0159 30.872 78.0113 30.8712 78.006C30.8705 78.0037 30.8697 78.0006 30.8689 77.9976C30.4638 76.2604 30.2578 74.4637 30.2578 72.6562C30.2578 70.6322 30.5149 68.6264 31.0223 66.6946C33.6361 56.7261 42.7326 49.2188 53.6953 49.2188C66.6187 49.2188 77.1328 59.7328 77.1328 72.6562Z" fill="white"/>
</svg>
