<svg width="84" height="100" viewBox="0 0 84 100" fill="none" xmlns="http://www.w3.org/2000/svg">
<path d="M26.375 28.5156C27.453 28.5156 28.3281 27.6405 28.3281 26.5625C28.3281 25.4845 27.453 24.6094 26.375 24.6094C25.297 24.6094 24.4219 25.4845 24.4219 26.5625C24.4219 27.6405 25.297 28.5156 26.375 28.5156Z" fill="white"/>
<path d="M26.375 40.2344C27.453 40.2344 28.3281 39.3593 28.3281 38.2812C28.3281 37.2032 27.453 36.3281 26.375 36.3281C25.297 36.3281 24.4219 37.2032 24.4219 38.2812C24.4219 39.3593 25.297 40.2344 26.375 40.2344Z" fill="white"/>
<path d="M22.4688 100H69.3438C76.8824 100 83.0156 93.8667 83.0156 86.3281C83.0156 85.2493 82.1413 84.375 81.0625 84.375H75.2031V9.76562C75.2031 4.3808 70.8223 0 65.4375 0C65.4375 0 9.23785 0 8.79688 0C4.48932 0 0.984375 3.50494 0.984375 7.8125V17.5781C0.984375 18.6569 1.8587 19.5312 2.9375 19.5312H12.7031V89.8163C12.7031 95.1241 16.7437 100 22.4688 100ZM69.3438 96.0938H30.2767C31.505 94.4603 32.2344 92.411 32.2344 90.2145V88.2614H78.9133C78.0062 92.7139 74.0595 96.0938 69.3438 96.0938ZM71.2969 9.76562V84.375H30.2812C29.2025 84.375 28.3281 85.2493 28.3281 86.3281V90.2344C28.3281 93.4654 25.6998 96.0938 22.4688 96.0938C18.9669 96.0938 16.6094 93.0634 16.6094 89.8163V7.8125C16.6094 6.40411 16.234 5.06592 15.5649 3.90625H65.4375C68.6685 3.90625 71.2969 6.53458 71.2969 9.76562ZM4.89062 15.625V7.8125C4.89062 5.65872 6.6431 3.90625 8.79688 3.90625C10.9323 3.90625 12.7031 5.6282 12.7031 7.8125V15.625H4.89062Z" fill="white"/>
<path d="M43.9531 55.8594C43.9531 59.2407 45.3676 62.3672 47.8594 64.5874V77.3437C47.8594 78.064 48.2561 78.7262 48.8909 79.0657C49.5256 79.406 50.297 79.3686 50.8959 78.9688L55.6719 75.7851L60.4479 78.9688C61.0483 79.3694 61.8189 79.4052 62.4529 79.0657C63.0876 78.7262 63.4844 78.064 63.4844 77.3437V64.5874C65.9769 62.3665 67.3906 59.24 67.3906 55.8594C67.3906 49.398 62.134 44.1406 55.6719 44.1406C49.2098 44.1406 43.9531 49.3973 43.9531 55.8594ZM56.7552 71.8124C56.0991 71.3753 55.2446 71.3753 54.5885 71.8124L51.7656 73.6946V66.9113C53.0069 67.35 54.3215 67.5781 55.6719 67.5781C57.0223 67.5781 58.3368 67.35 59.5781 66.9113V73.6946L56.7552 71.8124ZM63.4844 55.8594C63.4844 60.2684 59.894 63.6719 55.6719 63.6719C51.4482 63.6719 47.8594 60.2707 47.8594 55.8594C47.8594 51.5518 51.3643 48.0469 55.6719 48.0469C59.9794 48.0469 63.4844 51.5518 63.4844 55.8594Z" fill="white"/>
<path d="M26.375 16.7969H61.5312C62.61 16.7969 63.4844 15.9225 63.4844 14.8438C63.4844 13.765 62.61 12.8906 61.5312 12.8906H26.375C25.2962 12.8906 24.4219 13.765 24.4219 14.8438C24.4219 15.9225 25.2962 16.7969 26.375 16.7969Z" fill="white"/>
<path d="M34.1875 28.5156H61.5312C62.61 28.5156 63.4844 27.6413 63.4844 26.5625C63.4844 25.4837 62.61 24.6094 61.5312 24.6094H34.1875C33.1087 24.6094 32.2344 25.4837 32.2344 26.5625C32.2344 27.6413 33.1087 28.5156 34.1875 28.5156Z" fill="white"/>
<path d="M34.1875 40.2344H61.5312C62.61 40.2344 63.4844 39.36 63.4844 38.2812C63.4844 37.2025 62.61 36.3281 61.5312 36.3281H34.1875C33.1087 36.3281 32.2344 37.2025 32.2344 38.2812C32.2344 39.36 33.1087 40.2344 34.1875 40.2344Z" fill="white"/>
<path d="M26.375 63.6719H38.0938C39.1725 63.6719 40.0469 62.7975 40.0469 61.7188C40.0469 60.64 39.1725 59.7656 38.0938 59.7656H26.375C25.2962 59.7656 24.4219 60.64 24.4219 61.7188C24.4219 62.7975 25.2962 63.6719 26.375 63.6719Z" fill="white"/>
<path d="M26.375 51.9531H38.0938C39.1725 51.9531 40.0469 51.0788 40.0469 50C40.0469 48.9212 39.1725 48.0469 38.0938 48.0469H26.375C25.2962 48.0469 24.4219 48.9212 24.4219 50C24.4219 51.0788 25.2962 51.9531 26.375 51.9531Z" fill="white"/>
<path d="M26.375 75.3906H38.0938C39.1725 75.3906 40.0469 74.5163 40.0469 73.4375C40.0469 72.3587 39.1725 71.4844 38.0938 71.4844H26.375C25.2962 71.4844 24.4219 72.3587 24.4219 73.4375C24.4219 74.5163 25.2962 75.3906 26.375 75.3906Z" fill="white"/>
</svg>
