<svg width="100" height="75" viewBox="0 0 100 75" fill="none" xmlns="http://www.w3.org/2000/svg">
<path d="M84.375 58.5938C82.2166 58.5938 80.4688 60.3416 80.4688 62.5C80.4688 64.6584 82.2166 66.4062 84.375 66.4062C86.5334 66.4062 88.2812 64.6584 88.2812 62.5C88.2812 60.3416 86.5334 58.5938 84.375 58.5938Z" fill="white"/>
<path d="M82.4219 42.9688C81.3438 42.9688 80.4688 43.8438 80.4688 44.9219C80.4688 45.9999 81.3438 46.875 82.4219 46.875C83.4999 46.875 84.375 45.9999 84.375 44.9219C84.375 43.8438 83.4999 42.9688 82.4219 42.9688Z" fill="white"/>
<path d="M24.6094 58.5938C22.451 58.5938 20.7031 60.3416 20.7031 62.5C20.7031 64.6584 22.451 66.4062 24.6094 66.4062C26.7677 66.4062 28.5156 64.6584 28.5156 62.5C28.5156 60.3416 26.7677 58.5938 24.6094 58.5938Z" fill="white"/>
<path d="M91.7908 35.2814L88.4232 21.8109C89.6202 20.6657 90.2344 19.1467 90.2344 17.5781C90.2344 14.3471 87.606 11.7188 84.375 11.7188H68.75V5.85938C68.75 2.62833 66.1217 0 62.8906 0H5.85938C2.62833 0 0 2.62833 0 5.85938V56.6406C0 59.8717 2.62833 62.5 5.85938 62.5H12.8906C12.8906 68.9621 18.1473 74.2188 24.6094 74.2188C31.0715 74.2188 36.3281 68.9621 36.3281 62.5H72.6562C72.6562 68.9621 77.9129 74.2188 84.375 74.2188C90.8371 74.2188 96.0938 68.9621 96.0938 62.5C96.0938 62.3886 96.0884 62.278 96.0854 62.1666C98.3627 61.3632 100 59.1896 100 56.6406V44.9219C100 40.0665 96.4386 36.0291 91.7908 35.2814ZM84.803 23.4375L87.7327 35.1562H71.5118L75.9903 30.6778C76.7532 29.9149 76.7532 28.6789 75.9903 27.916C75.2274 27.153 73.9914 27.153 73.2285 27.916L68.75 32.3936V23.4375H84.803ZM86.3281 17.5781C86.3281 18.6562 85.453 19.5312 84.375 19.5312H68.75V15.625H84.375C85.4523 15.625 86.3281 16.5009 86.3281 17.5781ZM24.6094 70.3125C20.3018 70.3125 16.7969 66.8076 16.7969 62.5C16.7969 58.1337 20.3651 54.6875 24.6094 54.6875C28.8635 54.6875 32.4219 58.1429 32.4219 62.5C32.4219 66.8076 28.9169 70.3125 24.6094 70.3125ZM35.6575 58.5938C34.0263 53.9848 29.6112 50.7812 24.6094 50.7812C19.6053 50.7812 15.1886 53.9871 13.5605 58.5938H5.85938C4.7821 58.5938 3.90625 57.7179 3.90625 56.6406V5.85938C3.90625 4.7821 4.7821 3.90625 5.85938 3.90625H62.8906C63.9679 3.90625 64.8438 4.7821 64.8438 5.85938V58.5938H35.6575ZM84.375 70.3125C80.0674 70.3125 76.5625 66.8076 76.5625 62.5C76.5625 58.1337 80.1308 54.6875 84.375 54.6875C88.6292 54.6875 92.1875 58.1429 92.1875 62.5C92.1875 66.8076 88.6826 70.3125 84.375 70.3125ZM95.2843 58.2207C93.5516 53.8124 89.241 50.7812 84.375 50.7812C79.3709 50.7812 74.9542 53.9871 73.3261 58.5938H68.75V39.0625H90.2344C92.7803 39.0625 94.9516 40.6952 95.7581 42.9688H90.2344C89.1556 42.9688 88.2812 43.8431 88.2812 44.9219C88.2812 46.0007 89.1556 46.875 90.2344 46.875H96.0938V56.6406C96.0938 57.2899 95.7733 57.8651 95.2843 58.2207Z" fill="white"/>
<path d="M44.6673 20.1811L33.4531 31.3953L27.8956 25.8379C27.1328 25.0751 25.8963 25.0751 25.1335 25.8379C24.3707 26.6008 24.3707 27.8372 25.1335 28.6001L32.072 35.5385C32.8348 36.3014 34.0713 36.3014 34.8341 35.5385L47.4295 22.9432C48.1923 22.1804 48.1923 20.9439 47.4295 20.1811C46.6666 19.4182 45.4302 19.4182 44.6673 20.1811Z" fill="white"/>
</svg>
