<svg width="100" height="94" viewBox="0 0 100 94" fill="none" xmlns="http://www.w3.org/2000/svg">
<path d="M50 66.4062C48.922 66.4062 48.0469 67.2813 48.0469 68.3594C48.0469 69.4374 48.922 70.3125 50 70.3125C51.078 70.3125 51.9531 69.4374 51.9531 68.3594C51.9531 67.2813 51.078 66.4062 50 66.4062Z" fill="white"/>
<path d="M94.1406 35.1562H87.1094C87.1094 28.6469 87.1094 12.2864 87.1094 5.85938C87.1094 2.62833 84.481 0 81.25 0H5.85938C2.62833 0 0 2.62833 0 5.85938V52.7344C0 55.9654 2.62833 58.5938 5.85938 58.5938H12.8906V87.8906C12.8906 91.1217 15.519 93.75 18.75 93.75H94.1406C97.3717 93.75 100 91.1217 100 87.8906V41.0156C100 37.7846 97.3717 35.1562 94.1406 35.1562ZM3.90625 15.625H83.2031V23.4375H3.90625V15.625ZM5.85938 3.90625H81.25C82.3273 3.90625 83.2031 4.7821 83.2031 5.85938V11.7188H3.90625V5.85938C3.90625 4.7821 4.7821 3.90625 5.85938 3.90625ZM5.85938 54.6875C4.7821 54.6875 3.90625 53.8116 3.90625 52.7344V27.3438H83.2031V35.1562H18.75C15.519 35.1562 12.8906 37.7846 12.8906 41.0156V54.6875H5.85938ZM96.0938 87.8906C96.0938 88.9679 95.2179 89.8438 94.1406 89.8438H18.75C17.6727 89.8438 16.7969 88.9679 16.7969 87.8906V41.0156C16.7969 39.9384 17.6727 39.0625 18.75 39.0625H94.1406C95.2179 39.0625 96.0938 39.9384 96.0938 41.0156V87.8906Z" fill="white"/>
<path d="M77.3438 46.875C75.2144 46.875 73.1613 47.5739 71.4836 48.8319C69.8074 47.5739 67.7551 46.875 65.625 46.875C60.2402 46.875 55.8594 51.2558 55.8594 56.6406C55.8594 62.0255 60.2402 66.4062 65.625 66.4062C67.7551 66.4062 69.8082 65.7074 71.4836 64.4493C73.1613 65.7074 75.2144 66.4062 77.3438 66.4062C82.7286 66.4062 87.1094 62.0255 87.1094 56.6406C87.1094 51.2558 82.7286 46.875 77.3438 46.875ZM59.7656 56.6406C59.7656 53.4096 62.394 50.7812 65.625 50.7812C67.305 50.7812 68.9056 51.5045 70.0172 52.7657C70.0172 52.7664 70.018 52.7672 70.0188 52.7679C70.9641 53.8368 71.4844 55.2124 71.4844 56.6406C71.4844 58.0688 70.9641 59.4444 70.0172 60.5156C68.9056 61.7767 67.305 62.5 65.625 62.5C62.394 62.5 59.7656 59.8717 59.7656 56.6406ZM77.3438 62.5C76.1742 62.5 75.0427 62.1483 74.0868 61.5097C74.9344 60.0388 75.3906 58.3626 75.3906 56.6406C75.3906 54.9187 74.9344 53.2425 74.0868 51.7715C75.0427 51.133 76.1742 50.7812 77.3438 50.7812C80.5748 50.7812 83.2031 53.4096 83.2031 56.6406C83.2031 59.8717 80.5748 62.5 77.3438 62.5Z" fill="white"/>
<path d="M34.375 78.125H26.5625C25.4837 78.125 24.6094 78.9993 24.6094 80.0781C24.6094 81.1569 25.4837 82.0312 26.5625 82.0312H34.375C35.4538 82.0312 36.3281 81.1569 36.3281 80.0781C36.3281 78.9993 35.4538 78.125 34.375 78.125Z" fill="white"/>
<path d="M50 78.125H42.1875C41.1087 78.125 40.2344 78.9993 40.2344 80.0781C40.2344 81.1569 41.1087 82.0312 42.1875 82.0312H50C51.0788 82.0312 51.9531 81.1569 51.9531 80.0781C51.9531 78.9993 51.0788 78.125 50 78.125Z" fill="white"/>
<path d="M65.625 78.125H57.8125C56.7337 78.125 55.8594 78.9993 55.8594 80.0781C55.8594 81.1569 56.7337 82.0312 57.8125 82.0312H65.625C66.7038 82.0312 67.5781 81.1569 67.5781 80.0781C67.5781 78.9993 66.7038 78.125 65.625 78.125Z" fill="white"/>
<path d="M81.25 78.125H73.4375C72.3587 78.125 71.4844 78.9993 71.4844 80.0781C71.4844 81.1569 72.3587 82.0312 73.4375 82.0312H81.25C82.3288 82.0312 83.2031 81.1569 83.2031 80.0781C83.2031 78.9993 82.3288 78.125 81.25 78.125Z" fill="white"/>
<path d="M26.5625 70.3125H42.1875C43.2663 70.3125 44.1406 69.4382 44.1406 68.3594C44.1406 67.2806 43.2663 66.4062 42.1875 66.4062H26.5625C25.4837 66.4062 24.6094 67.2806 24.6094 68.3594C24.6094 69.4382 25.4837 70.3125 26.5625 70.3125Z" fill="white"/>
</svg>
