<svg width="100" height="100" viewBox="0 0 100 100" fill="none" xmlns="http://www.w3.org/2000/svg">
<path d="M34.7272 40.4144C35.4909 39.6507 35.4909 38.414 34.7272 37.6526C33.9658 36.8889 32.7291 36.8889 31.9654 37.6526C31.2017 38.414 31.2017 39.6507 31.9654 40.4144C32.7291 41.1759 33.9658 41.1759 34.7272 40.4144Z" fill="white"/>
<path d="M54.0629 43.1763C56.3471 40.8921 56.3471 37.175 54.0629 34.8908C51.7733 32.6012 48.0654 32.6005 45.7759 34.8908C43.4855 37.1804 43.4855 40.886 45.7759 43.1763C48.0601 45.4606 51.7779 45.4613 54.0629 43.1763ZM48.5377 37.6526C49.3014 36.8897 50.5374 36.8897 51.3011 37.6526C52.0617 38.4141 52.0617 39.6523 51.3011 40.4137C50.5389 41.1751 49.2991 41.1759 48.5377 40.4137C47.7755 39.6523 47.7725 38.4179 48.5377 37.6526Z" fill="white"/>
<path d="M45.7759 56.9855C43.4855 59.2758 43.4855 62.9829 45.7759 65.2732C48.0654 67.5628 51.7726 67.5636 54.0629 65.2732C56.3479 62.9882 56.3479 59.2705 54.0629 56.9855C51.7733 54.6966 48.0654 54.6959 45.7759 56.9855ZM51.3011 62.5114C50.5374 63.2744 49.3006 63.2744 48.5377 62.5114C47.7755 61.7492 47.7725 60.5133 48.5377 59.7481C49.3014 58.9843 50.5374 58.9851 51.3011 59.7481C52.0625 60.5095 52.0625 61.7492 51.3011 62.5114Z" fill="white"/>
<path d="M34.1933 53.2264C34.4046 54.2854 35.4346 54.9698 36.4912 54.7584L64.1119 49.2332C65.1693 49.0219 65.8552 47.9927 65.6439 46.9352C65.4326 45.877 64.4034 45.1919 63.3459 45.4033L35.7253 50.9285C34.6671 51.1398 33.9812 52.169 34.1933 53.2264Z" fill="white"/>
<path d="M59.3768 11.0496C58.8588 11.0496 58.3621 11.2548 57.9959 11.621L37.4904 32.1265C36.7274 32.8894 36.7274 34.1262 37.4904 34.8891C38.2533 35.652 39.49 35.652 40.2522 34.8891L59.3768 15.7645L84.2348 40.6233L40.3873 84.4709L15.5284 59.6129L29.2041 45.9372C29.967 45.175 29.967 43.9383 29.2041 43.1754C28.4412 42.4132 27.2044 42.4132 26.4415 43.1754L11.3857 58.232C10.6227 58.9941 10.6227 60.2309 11.3857 60.9938L39.0063 88.6144C39.7693 89.3774 41.0052 89.3774 41.7682 88.6144L88.3784 42.0043C89.1413 41.2413 89.1413 40.0046 88.3784 39.2417L60.7577 11.621C60.3915 11.2548 59.8948 11.0496 59.3768 11.0496Z" fill="white"/>
<path d="M96.6651 0.572976L88.282 8.95538C83.3908 5.26199 76.6365 5.20172 71.7865 8.80279L64.92 1.73722C64.9132 1.73035 64.9071 1.72425 64.9002 1.71738C62.6221 -0.56075 58.9172 -0.585164 56.6116 1.72044L1.71747 56.8511C-0.572108 59.1407 -0.572871 62.8486 1.71747 65.1389L9.46435 72.885C7.734 77.8373 8.98217 83.4517 12.7656 87.2336C16.5482 91.0178 22.1627 92.2652 27.1149 90.5364L34.8618 98.2825C37.1514 100.572 40.8608 100.571 43.1458 98.2855L98.2826 43.3853C100.573 41.0949 100.573 37.3893 98.2826 35.0997C98.2757 35.0929 98.2696 35.0868 98.2627 35.0799L91.1979 28.215C94.786 23.3978 94.7723 16.6405 91.0446 11.718L99.427 3.33558C100.19 2.57264 100.19 1.33591 99.427 0.572976C98.664 -0.189962 97.4281 -0.189962 96.6651 0.572976ZM87.1376 26.9531C86.7683 27.3231 86.5623 27.8251 86.5654 28.3485C86.5692 28.8711 86.7828 29.3708 87.1574 29.7348L95.5284 37.87C96.286 38.636 96.2776 39.8658 95.523 40.6196L40.387 95.5199C39.6248 96.2821 38.385 96.2821 37.6236 95.5199L28.9612 86.8582C28.5874 86.4836 28.0869 86.286 27.5803 86.286C27.2996 86.286 27.0165 86.3463 26.751 86.4707C22.9951 88.2331 18.4846 87.4297 15.5282 84.471C12.5695 81.5146 11.7661 77.0049 13.5285 73.249C13.8779 72.5036 13.7238 71.6201 13.1417 71.038L4.48007 62.3763C3.71789 61.6141 3.71789 60.3751 4.48236 59.6099L59.3773 4.47922C60.1372 3.7201 61.3655 3.71552 62.13 4.47083L70.2644 12.8418C70.9938 13.5925 72.2427 13.6658 73.0469 12.8624C76.3901 9.51766 81.6253 9.16061 85.482 11.7554L82.6172 14.6202C80.439 13.5826 77.7489 13.9633 75.9483 15.7638C73.6641 18.0488 73.6641 21.7666 75.9483 24.0509C78.2379 26.3405 81.9458 26.3412 84.2361 24.0509C86.0779 22.2091 86.4006 19.5076 85.382 17.3797L88.2461 14.5157C90.821 18.3273 90.5243 23.5672 87.1376 26.9531ZM81.4735 18.5257C82.2357 19.2879 82.2387 20.5238 81.4735 21.289C80.7106 22.052 79.4739 22.052 78.7109 21.289C77.9487 20.5269 77.9487 19.2871 78.7102 18.5257C79.4723 17.765 80.7121 17.7635 81.4735 18.5257Z" fill="white"/>
</svg>
